<svg width="24" height="24" viewBox="0 0 24 24" fill="none" xmlns="http://www.w3.org/2000/svg">
<path d="M12.449 1.38197L12 0L11.551 1.38197H10.0979L11.2735 2.23607L10.8244 3.61803L12 2.76393L13.1756 3.61803L12.7266 2.23607L13.9021 1.38197H12.449Z" fill="#555758"/>
<path d="M2.44904 11.382L2.00001 10L1.55099 11.382H0.0979004L1.27347 12.2361L0.824443 13.618L2.00001 12.7639L3.17558 13.618L2.72656 12.2361L3.90213 11.382H2.44904Z" fill="#555758"/>
<path d="M22 10L22.449 11.382H23.9021L22.7266 12.2361L23.1756 13.618L22 12.7639L20.8244 13.618L21.2735 12.2361L20.0979 11.382H21.551L22 10Z" fill="#555758"/>
<path d="M21.199 6.38197L20.75 5L20.301 6.38197H18.8479L20.0235 7.23607L19.5744 8.61803L20.75 7.76393L21.9256 8.61803L21.4766 7.23607L22.6521 6.38197H21.199Z" fill="#555758"/>
<path d="M3.25001 5L3.69904 6.38197H5.15213L3.97656 7.23607L4.42558 8.61803L3.25001 7.76393L2.07444 8.61803L2.52347 7.23607L1.3479 6.38197H2.80099L3.25001 5Z" fill="#555758"/>
<path d="M3.69904 16.382L3.25001 15L2.80099 16.382H1.3479L2.52347 17.2361L2.07444 18.618L3.25001 17.7639L4.42558 18.618L3.97656 17.2361L5.15213 16.382H3.69904Z" fill="#555758"/>
<path d="M20.75 15L21.199 16.382H22.6521L21.4766 17.2361L21.9256 18.618L20.75 17.7639L19.5744 18.618L20.0235 17.2361L18.8479 16.382H20.301L20.75 15Z" fill="#555758"/>
<path d="M17.449 19.882L17 18.5L16.551 19.882H15.0979L16.2735 20.7361L15.8244 22.118L17 21.2639L18.1756 22.118L17.7266 20.7361L18.9021 19.882H17.449Z" fill="#555758"/>
<path d="M7.00001 18.5L7.44904 19.882H8.90213L7.72656 20.7361L8.17558 22.118L7.00001 21.2639L5.82444 22.118L6.27347 20.7361L5.0979 19.882H6.55099L7.00001 18.5Z" fill="#555758"/>
<path d="M17.449 2.88197L17 1.5L16.551 2.88197H15.0979L16.2735 3.73607L15.8244 5.11803L17 4.26393L18.1756 5.11803L17.7266 3.73607L18.9021 2.88197H17.449Z" fill="#555758"/>
<path d="M7.00001 1.5L7.44904 2.88197H8.90213L7.72656 3.73607L8.17558 5.11803L7.00001 4.26393L5.82444 5.11803L6.27347 3.73607L5.0979 2.88197H6.55099L7.00001 1.5Z" fill="#555758"/>
<path d="M12.449 21.382L12 20L11.551 21.382H10.0979L11.2735 22.2361L10.8244 23.618L12 22.7639L13.1756 23.618L12.7266 22.2361L13.9021 21.382H12.449Z" fill="#555758"/>
</svg>
