<svg width="24" height="24" viewBox="0 0 24 24" fill="none" xmlns="http://www.w3.org/2000/svg">
<path fill-rule="evenodd" clip-rule="evenodd" d="M12.9915 4.69081C14.3312 5.287 15.4752 5.97589 16.1079 6.44946C16.3682 6.48439 16.6305 6.53133 16.8936 6.59154C19.3925 7.16349 21.907 8.92123 23.4642 12.8143C23.5275 12.9725 23.5059 13.152 23.4069 13.2907C22.1033 15.1156 20.6192 16.2201 18.9326 16.8371C17.6404 17.3098 16.2497 17.4888 14.7651 17.5068C14.5346 17.9045 14.2561 18.2886 13.9457 18.6404C13.1902 19.4967 12.1913 20.2236 11.1187 20.4857C10.8987 20.5395 10.67 20.4387 10.5613 20.24C10.4527 20.0413 10.4911 19.7943 10.655 19.6381C11.3993 18.9288 11.8749 18.0785 12.1381 17.314C10.908 17.0466 9.73527 16.5049 8.72513 15.9C8.30161 15.6463 7.90249 15.3791 7.53505 15.1118C6.23983 15.7038 4.78015 16.6662 3.1666 18.3464C3.00936 18.5101 2.76155 18.5474 2.56312 18.4371C2.36468 18.3269 2.26543 18.0968 2.32141 17.8768C3.32222 13.9436 1.58381 10.5112 0.611986 9.3154C0.454123 9.12116 0.464212 8.84012 0.635595 8.6577C0.806979 8.47528 1.08685 8.44769 1.29055 8.59314C2.22742 9.26208 3.92422 10.3371 5.88845 11.2427C6.08299 11.3324 6.27967 11.4202 6.47804 11.5056C6.81142 11.0393 7.19688 10.5354 7.61678 10.0389C8.39645 9.11703 9.32363 8.18567 10.2808 7.57883C10.1492 7.25167 9.98321 6.89561 9.78288 6.53827C9.2756 5.63338 8.59188 4.79945 7.77405 4.38515C7.56763 4.28058 7.45993 4.04803 7.51368 3.82296C7.56744 3.5979 7.7686 3.43912 8 3.43912C9.67068 3.43912 11.4868 4.02122 12.9915 4.69081ZM20 13C20.5523 13 21 12.5523 21 12C21 11.4477 20.5523 11 20 11C19.4477 11 19 11.4477 19 12C19 12.5523 19.4477 13 20 13Z" fill="#555758"/>
</svg>
