<svg width="24" height="24" viewBox="0 0 24 24" fill="none" xmlns="http://www.w3.org/2000/svg">
<path d="M1.12139 2.51493C0.853489 2.44795 0.582021 2.61083 0.515047 2.87873C0.448073 3.14663 0.610953 3.41809 0.87885 3.48507L4.87885 4.48507C5.14675 4.55204 5.41822 4.38916 5.48519 4.12126C5.55216 3.85337 5.38928 3.5819 5.12139 3.51493L1.12139 2.51493Z" fill="#555758"/>
<path d="M5.12139 8.48507C5.38928 8.41809 5.55216 8.14663 5.48519 7.87873C5.41822 7.61083 5.14675 7.44795 4.87885 7.51493L0.87885 8.51493C0.610953 8.5819 0.448073 8.85337 0.515047 9.12126C0.582021 9.38916 0.853489 9.55204 1.12139 9.48507L5.12139 8.48507Z" fill="#555758"/>
<path d="M7.00012 20L8.00012 7H16.0001L17.0001 20H20.0001V22H4.00012V20H7.00012Z" fill="#555758"/>
<path d="M23.4852 2.87873C23.4182 2.61083 23.1468 2.44795 22.8789 2.51493L18.8789 3.51493C18.611 3.5819 18.4481 3.85337 18.5151 4.12126C18.582 4.38916 18.8535 4.55204 19.1214 4.48507L23.1214 3.48507C23.3893 3.41809 23.5522 3.14663 23.4852 2.87873Z" fill="#555758"/>
<path d="M18.5151 7.87873C18.4481 8.14663 18.611 8.41809 18.8789 8.48507L22.8789 9.48507C23.1468 9.55204 23.4182 9.38916 23.4852 9.12126C23.5522 8.85337 23.3893 8.5819 23.1214 8.51493L19.1214 7.51493C18.8535 7.44795 18.582 7.61083 18.5151 7.87873Z" fill="#555758"/>
<path d="M12.0001 2C13.657 2 15.0001 3.34315 15.0001 5H9.00012C9.00012 3.34315 10.3433 2 12.0001 2Z" fill="#555758"/>
</svg>
