<svg width="24" height="24" viewBox="0 0 24 24" fill="none" xmlns="http://www.w3.org/2000/svg">
<path fill-rule="evenodd" clip-rule="evenodd" d="M6.46154 8.37143C8.13915 8.37143 9.07009 8.24047 9.96517 8.11455C10.7938 7.99797 11.5918 7.88571 12.9231 7.88571C18 7.88571 20.3077 11.7714 20.3077 13.7143C20.3077 15.6571 18.9231 17.1143 17.0769 17.1143C15.2308 17.1143 14.3077 16.1429 13.8462 14.6857C13.4481 13.4289 12.3632 12.8947 11.4801 12.46C11.3394 12.3907 11.2038 12.3239 11.0769 12.2571C10.6999 12.0588 9.45019 12.0224 8.08264 11.9827C6.10208 11.9251 3.87432 11.8604 3.69231 11.2857C3.27937 9.98199 5.07692 8.37143 6.46154 8.37143ZM18.4615 13.7143C18.4615 14.519 17.8416 15.1714 17.0769 15.1714C16.3122 15.1714 15.6923 14.519 15.6923 13.7143C15.6923 12.9095 16.3122 12.2571 17.0769 12.2571C17.8416 12.2571 18.4615 12.9095 18.4615 13.7143Z" fill="#555758"/>
<path fill-rule="evenodd" clip-rule="evenodd" d="M17.0769 21C20.5807 21 23.4749 18.2621 23.936 14.7071C23.978 14.544 24 14.3737 24 14.2C24 14.1212 23.9987 14.042 23.996 13.9626C23.9987 13.8801 24 13.7973 24 13.7143C24 11.9935 23.4309 10.4078 22.4819 9.1612C20.8081 6.40217 17.6878 4 12.9231 4C11.6988 4 10.8127 4.12472 9.98694 4.24095L9.96936 4.24342C9.08985 4.36721 8.24476 4.48571 6.92308 4.48571C6.80842 4.48571 6.69551 4.49687 6.58549 4.51838C2.44483 4.86395 0 7.9243 0 11.2857C0 12.4095 0.402022 13.3751 1.11558 14.0905C1.77033 14.7468 2.58171 15.0886 3.28336 15.2837C4.62769 15.6576 6.22708 15.6573 7.31243 15.6572L7.38462 15.6571C8.76257 15.6571 9.43547 15.7572 9.85637 15.9235C10.1428 16.0367 10.4023 16.2139 10.7698 16.7218C11.8564 19.242 14.2695 21 17.0769 21ZM22.1484 13.9639C22.152 14.0442 22.1538 14.123 22.1538 14.2L22.132 14.2127C21.8932 16.9298 19.7211 19.0571 17.0769 19.0571C14.9569 19.0571 13.1404 17.6897 12.3804 15.7472C11.247 14.0776 10.179 13.7143 7.38462 13.7143C5.09051 13.7143 1.84615 13.7 1.84615 11.2857C1.84615 8.97538 3.53677 6.63886 6.91799 6.44196L6.92308 6.42857C8.37076 6.42857 9.3139 6.29583 10.2141 6.16913C11.0358 6.05348 11.8218 5.94286 12.9231 5.94286C17.0713 5.94286 19.6373 8.02427 20.9801 10.2975C21.713 11.2236 22.1538 12.4148 22.1538 13.7143C22.1538 13.798 22.152 13.8812 22.1484 13.9639Z" fill="#555758"/>
</svg>
