<svg width="24" height="24" viewBox="0 0 24 24" fill="none" xmlns="http://www.w3.org/2000/svg">
<path fill-rule="evenodd" clip-rule="evenodd" d="M6.42951 3.69573C4.64387 5.80247 4.20556 8.59979 5.02805 11.0389L6.29817 9.78763C6.6916 9.40003 7.32475 9.40477 7.71234 9.7982C8.09994 10.1916 8.0952 10.8248 7.70177 11.2124L3.09943 15.7464C2.72448 16.1449 2.73932 16.772 3.13468 17.1523C3.53273 17.5351 4.16577 17.5228 4.54862 17.1247L4.55767 17.1153L8.15943 13.561C8.55253 13.1731 9.18568 13.1773 9.57361 13.5704C9.96153 13.9635 9.95733 14.5967 9.56423 14.9846L9.04 15.5019C10.8129 16.3211 12.8186 16.4115 14.6294 15.8082L14.1476 15.023C13.8588 14.5523 14.0062 13.9365 14.477 13.6477C14.9477 13.3588 15.5635 13.5063 15.8523 13.977L18.6379 18.5167C18.939 18.9747 19.5535 19.1053 20.0152 18.8077C20.4789 18.5089 20.6128 17.891 20.3149 17.427L16.7712 11.9831C16.4699 11.5202 16.6009 10.9008 17.0637 10.5995C17.5266 10.2982 18.1461 10.4291 18.4474 10.892L19.0816 11.8663C20.5269 8.83101 19.8172 5.08906 17.1317 2.81286C16.7104 2.45576 16.6583 1.82474 17.0154 1.40343C17.3725 0.982122 18.0036 0.930065 18.4249 1.28716C22.1302 4.42777 22.8583 9.77704 20.3143 13.76L21.995 16.3419C22.8926 17.7345 22.4913 19.5912 21.0987 20.4888C19.7061 21.3864 17.8494 20.9851 16.9518 19.5925L16.9458 19.5832L15.6976 17.549C15.2476 17.7233 14.7865 17.8629 14.3185 17.9674L14.1715 19.4647C14.0096 21.1136 12.5416 22.319 10.8927 22.1571C9.24376 21.9952 8.03829 20.5273 8.20019 18.8784L8.34692 17.3839C8.0738 17.2632 7.80483 17.129 7.54099 16.9812L5.98013 18.5215C4.83059 19.7055 2.93896 19.739 1.74826 18.5937C0.554102 17.4452 0.517128 15.546 1.66568 14.3519L1.67501 14.3422L3.48076 12.5632C2.00263 9.29265 2.42887 5.32258 4.90382 2.40258C5.26091 1.98127 5.89193 1.92921 6.31324 2.28631C6.73455 2.6434 6.78661 3.27442 6.42951 3.69573ZM10.2955 18.0051L10.1906 19.0738C10.1367 19.6234 10.5385 20.1128 11.0881 20.1667C11.6378 20.2207 12.1271 19.8189 12.181 19.2692L12.2862 18.1987C11.6202 18.2034 10.9528 18.1392 10.2955 18.0051Z" fill="#555758"/>
</svg>
