<svg width="24" height="24" viewBox="0 0 24 24" fill="none" xmlns="http://www.w3.org/2000/svg">
<path d="M12 17C14.7614 17 17 14.7614 17 12C17 9.23858 14.7614 7 12 7C9.23858 7 7 9.23858 7 12C7 14.7614 9.23858 17 12 17Z" fill="#555758"/>
<path fill-rule="evenodd" clip-rule="evenodd" d="M22.3308 12.6122C21.2155 11.4579 20.832 9.3139 21.4782 7.8453C22.1245 6.37767 21.342 5.15433 19.7371 5.12708C18.1333 5.1008 16.3455 3.85604 15.7644 2.3602C15.1834 0.865321 13.7645 0.553888 12.6122 1.66921C11.4579 2.78452 9.3139 3.16797 7.8453 2.52175C6.37767 1.87553 5.15433 2.658 5.12708 4.26285C5.1008 5.86576 3.85604 7.65455 2.3602 8.23556C0.865321 8.81658 0.553888 10.2355 1.66921 11.3878C2.78452 12.5421 3.16797 14.6861 2.52175 16.1547C1.87553 17.6223 2.658 18.8457 4.26285 18.8729C5.86673 18.8992 7.65455 20.144 8.23556 21.6398C8.81658 23.1347 10.2355 23.4461 11.3878 22.3308C12.5421 21.2155 14.6861 20.832 16.1547 21.4782C17.6223 22.1245 18.8457 21.342 18.8729 19.7371C18.8992 18.1333 20.144 16.3455 21.6398 15.7644C23.1347 15.1834 23.4461 13.7645 22.3308 12.6122ZM19 12C19 15.866 15.866 19 12 19C8.13401 19 5 15.866 5 12C5 8.13401 8.13401 5 12 5C15.866 5 19 8.13401 19 12Z" fill="#555758"/>
</svg>
