<svg width="24" height="24" viewBox="0 0 24 24" fill="none" xmlns="http://www.w3.org/2000/svg">
<path d="M12.0001 14C13.1047 14 14.0001 13.1046 14.0001 12C14.0001 10.8954 13.1047 10 12.0001 10C10.8955 10 10.0001 10.8954 10.0001 12C10.0001 13.1046 10.8955 14 12.0001 14Z" fill="#555758"/>
<path fill-rule="evenodd" clip-rule="evenodd" d="M1.6078 6C0.564432 7.80718 0.980793 10.0103 2.10895 12C0.980792 13.9897 0.564429 16.1928 1.6078 18C2.65118 19.8072 4.76735 20.5482 7.05453 20.566C8.21355 22.5378 9.91336 24 12.0001 24C14.0869 24 15.7867 22.5378 16.9457 20.566C19.2329 20.5482 21.349 19.8072 22.3924 18C23.4358 16.1928 23.0194 13.9897 21.8913 12C23.0194 10.0103 23.4358 7.80717 22.3924 6C21.349 4.19282 19.2329 3.45183 16.9457 3.43401C15.7867 1.46216 14.0869 0 12.0001 0C9.91336 0 8.21355 1.46216 7.05453 3.43401C4.76735 3.45183 2.65118 4.19283 1.6078 6ZM9.32529 3.62963C10.1932 3.77873 11.0914 4.01222 12.0001 4.32781C12.9089 4.01222 13.807 3.77873 14.6749 3.62962C13.8206 2.51708 12.8754 2 12.0001 2C11.1248 2 10.1796 2.51709 9.32529 3.62963ZM8.2452 5.49631C8.5164 5.52589 8.79391 5.56596 9.07674 5.6166C8.88401 5.7201 8.69173 5.82718 8.50011 5.93782C8.30848 6.04846 8.11961 6.16143 7.93361 6.27659C8.03116 6.00633 8.13522 5.74596 8.2452 5.49631ZM9.50011 7.66987C8.66487 8.1521 7.89617 8.67797 7.20244 9.23007C7.07118 10.1069 7.00011 11.0355 7.00011 12C7.00011 12.9645 7.07118 13.8931 7.20244 14.7699C7.89617 15.322 8.66487 15.8479 9.50011 16.3301C10.3353 16.8124 11.1751 17.2151 12.0001 17.5399C12.8251 17.2151 13.6649 16.8124 14.5001 16.3301C15.3353 15.8479 16.104 15.322 16.7978 14.7699C16.929 13.8931 17.0001 12.9645 17.0001 12C17.0001 11.0355 16.929 10.1069 16.7978 9.23007C16.104 8.67798 15.3353 8.1521 14.5001 7.66987C13.6649 7.18765 12.8251 6.78487 12.0001 6.46013C11.1751 6.78487 10.3353 7.18765 9.50011 7.66987ZM6.08856 5.49835C5.7837 6.32458 5.53686 7.21912 5.3558 8.16391C4.62812 8.79311 3.97685 9.45415 3.41374 10.1313C2.87743 8.83511 2.90219 7.75805 3.33986 7C3.77752 6.24195 4.69789 5.68198 6.08856 5.49835ZM5.01024 11.34C4.82497 11.5596 4.65151 11.7799 4.49029 12C4.65151 12.2201 4.82497 12.4404 5.01024 12.66C5.00351 12.4413 5.00011 12.2213 5.00011 12C5.00011 11.7787 5.00351 11.5587 5.01024 11.34ZM3.33985 17C3.77752 17.7581 4.69789 18.318 6.08856 18.5016C5.7837 17.6754 5.53686 16.7809 5.3558 15.8361C4.62812 15.2069 3.97685 14.5459 3.41374 13.8687C2.87743 15.1649 2.90219 16.2419 3.33985 17ZM12.0001 22C11.1248 22 10.1796 21.4829 9.32529 20.3704C10.1932 20.2213 11.0914 19.9878 12.0001 19.6722C12.9089 19.9878 13.807 20.2213 14.6749 20.3704C13.8206 21.4829 12.8754 22 12.0001 22ZM8.2452 18.5037C8.5164 18.4741 8.79391 18.434 9.07674 18.3834C8.88401 18.2799 8.69174 18.1728 8.50011 18.0622C8.30848 17.9515 8.11961 17.8386 7.93361 17.7234C8.03116 17.9937 8.13521 18.254 8.2452 18.5037ZM15.755 18.5037C15.4838 18.4741 15.2063 18.434 14.9235 18.3834C15.1162 18.2799 15.3085 18.1728 15.5001 18.0622C15.6917 17.9515 15.8806 17.8386 16.0666 17.7234C15.9691 17.9937 15.865 18.254 15.755 18.5037ZM17.9117 18.5016C18.2165 17.6754 18.4634 16.7809 18.6444 15.8361C19.3721 15.2069 20.0234 14.5458 20.5865 13.8687C21.1228 15.1649 21.098 16.2419 20.6604 17C20.2227 17.7581 19.3023 18.318 17.9117 18.5016ZM20.6604 7C21.098 7.75805 21.1228 8.8351 20.5865 10.1313C20.0234 9.45415 19.3721 8.79311 18.6444 8.16391C18.4634 7.21912 18.2165 6.32458 17.9117 5.49835C19.3023 5.68198 20.2227 6.24194 20.6604 7ZM16.0666 6.27659C15.9691 6.00633 15.865 5.74596 15.755 5.49631C15.4838 5.52589 15.2063 5.56596 14.9235 5.6166C15.1162 5.7201 15.3085 5.82719 15.5001 5.93782C15.6917 6.04846 15.8806 6.16144 16.0666 6.27659ZM18.99 12.66C19.1752 12.4404 19.3487 12.2201 19.5099 12C19.3487 11.7799 19.1752 11.5596 18.99 11.34C18.9967 11.5587 19.0001 11.7787 19.0001 12C19.0001 12.2213 18.9967 12.4413 18.99 12.66Z" fill="#555758"/>
</svg>
