<svg width="24" height="24" viewBox="0 0 24 24" fill="none" xmlns="http://www.w3.org/2000/svg">
<path fill-rule="evenodd" clip-rule="evenodd" d="M12 2C12 2 8.26667 5 4 5V15C4 15.9903 4.8937 17.1006 6.08369 18.1401C6.08369 18.1401 6.0837 18.1401 6.08369 18.1401C6.08976 18.1454 6.09582 18.1507 6.10191 18.156C6.45843 18.4664 6.84116 18.7704 7.23412 19.0629C9.45365 20.715 12 22 12 22C12 22 14.6021 20.6869 16.8382 19.0089C17.2125 18.728 17.5765 18.4369 17.9163 18.1401C19.1063 17.1006 20 15.9903 20 15V5C15.7333 5 12 2 12 2ZM15 10C15 11.6569 13.6569 13 12 13C10.3431 13 9 11.6569 9 10C9 8.34315 10.3431 7 12 7C13.6569 7 15 8.34315 15 10ZM12 14C9.64612 14 8.01904 15.1401 7.03489 16.3021C7.61123 16.8508 8.34577 17.4199 9.13565 17.9648C10.0717 18.6105 11.0176 19.176 11.7356 19.5826C11.828 19.635 11.9163 19.6845 12 19.731C12.0837 19.6845 12.172 19.635 12.2644 19.5826C12.9824 19.176 13.9284 18.6105 14.8644 17.9648C15.6542 17.4199 16.3888 16.8508 16.9651 16.3021C15.981 15.1401 14.3539 14 12 14Z" fill="#555758"/>
</svg>
