<svg width="25" height="24" viewBox="0 0 25 24" fill="none" xmlns="http://www.w3.org/2000/svg">
<path d="M12.722 19.8549C12.542 20.0349 12.222 20.0649 12.012 19.8549C11.832 19.6749 11.802 19.3549 12.012 19.1449L15.402 15.7549L13.992 14.3449L10.602 17.7349C10.412 17.9349 10.092 17.9249 9.89205 17.7349C9.68205 17.5249 9.71205 17.2049 9.89205 17.0249L13.282 13.6349L11.872 12.2249L8.48205 15.6149C8.30205 15.7949 7.98205 15.8249 7.77205 15.6149C7.58205 15.4249 7.58205 15.1049 7.77205 14.9049L11.162 11.5149L9.74204 10.1049L6.35205 13.4949C6.17205 13.6749 5.85205 13.7049 5.64205 13.4949C5.45205 13.2949 5.45205 12.9849 5.64205 12.7849L10.022 8.40488L11.892 10.2649C12.842 11.2149 14.482 11.2049 15.432 10.2649C16.412 9.28488 16.412 7.70488 15.432 6.72488L13.572 4.86488L13.852 4.58488C14.632 3.80488 15.902 3.80488 16.682 4.58488L20.922 8.82488C21.702 9.60488 21.702 10.8749 20.922 11.6549L12.722 19.8549ZM22.332 13.0749C23.892 11.5149 23.892 8.98488 22.332 7.41488L18.092 3.17488C16.532 1.61488 14.002 1.61488 12.432 3.17488L12.152 3.45488L11.872 3.17488C10.312 1.61488 7.78205 1.61488 6.21205 3.17488L2.67205 6.71488C1.25205 8.13488 1.12205 10.3449 2.27205 11.9049L3.72205 10.4549C3.33205 9.70488 3.46205 8.75488 4.09205 8.12488L7.63205 4.58488C8.41205 3.80488 9.68204 3.80488 10.462 4.58488L14.022 8.14488C14.202 8.32488 14.232 8.64488 14.022 8.85488C13.812 9.06488 13.492 9.03488 13.312 8.85488L10.022 5.57488L4.22205 11.3649C3.24205 12.3349 3.24205 13.9249 4.22205 14.9049C4.61205 15.2949 5.11205 15.5349 5.64205 15.6049C5.71205 16.1249 5.94205 16.6249 6.34205 17.0249C6.74205 17.4249 7.24205 17.6549 7.76205 17.7249C7.83205 18.2449 8.06205 18.7449 8.46205 19.1449C8.86205 19.5449 9.36204 19.7749 9.88204 19.8449C9.95204 20.3849 10.192 20.8749 10.582 21.2649C11.052 21.7349 11.682 21.9949 12.352 21.9949C13.022 21.9949 13.652 21.7349 14.122 21.2649L22.332 13.0749Z" fill="#CBD5E1"/>
</svg>
