<svg width="25" height="24" viewBox="0 0 25 24" fill="none" xmlns="http://www.w3.org/2000/svg">
<path d="M12.7689 19.8549C12.5889 20.0349 12.2689 20.0649 12.0589 19.8549C11.8789 19.6749 11.8489 19.3549 12.0589 19.1449L15.4489 15.7549L14.0389 14.3449L10.6489 17.7349C10.4589 17.9349 10.1389 17.9249 9.93892 17.7349C9.72892 17.5249 9.75892 17.2049 9.93892 17.0249L13.3289 13.6349L11.9189 12.2249L8.52892 15.6149C8.34892 15.7949 8.02892 15.8249 7.81892 15.6149C7.62892 15.4249 7.62892 15.1049 7.81892 14.9049L11.2089 11.5149L9.78892 10.1049L6.39892 13.4949C6.21892 13.6749 5.89892 13.7049 5.68892 13.4949C5.49892 13.2949 5.49892 12.9849 5.68892 12.7849L10.0689 8.40488L11.9389 10.2649C12.8889 11.2149 14.5289 11.2049 15.4789 10.2649C16.4589 9.28488 16.4589 7.70488 15.4789 6.72488L13.6189 4.86488L13.8989 4.58488C14.6789 3.80488 15.9489 3.80488 16.7289 4.58488L20.9689 8.82488C21.7489 9.60488 21.7489 10.8749 20.9689 11.6549L12.7689 19.8549ZM22.3789 13.0749C23.9389 11.5149 23.9389 8.98488 22.3789 7.41488L18.1389 3.17488C16.5789 1.61488 14.0489 1.61488 12.4789 3.17488L12.1989 3.45488L11.9189 3.17488C10.3589 1.61488 7.82892 1.61488 6.25892 3.17488L2.71892 6.71488C1.29892 8.13488 1.16892 10.3449 2.31892 11.9049L3.76892 10.4549C3.37892 9.70488 3.50892 8.75488 4.13892 8.12488L7.67892 4.58488C8.45892 3.80488 9.72892 3.80488 10.5089 4.58488L14.0689 8.14488C14.2489 8.32488 14.2789 8.64488 14.0689 8.85488C13.8589 9.06488 13.5389 9.03488 13.3589 8.85488L10.0689 5.57488L4.26892 11.3649C3.28892 12.3349 3.28892 13.9249 4.26892 14.9049C4.65892 15.2949 5.15892 15.5349 5.68892 15.6049C5.75892 16.1249 5.98892 16.6249 6.38892 17.0249C6.78892 17.4249 7.28892 17.6549 7.80892 17.7249C7.87892 18.2449 8.10892 18.7449 8.50892 19.1449C8.90892 19.5449 9.40892 19.7749 9.92892 19.8449C9.99892 20.3849 10.2389 20.8749 10.6289 21.2649C11.0989 21.7349 11.7289 21.9949 12.3989 21.9949C13.0689 21.9949 13.6989 21.7349 14.1689 21.2649L22.3789 13.0749Z" fill="#0891B2"/>
</svg>
