<svg width="24" height="25" viewBox="0 0 24 25" fill="none" xmlns="http://www.w3.org/2000/svg">
<path d="M12 11.5C13.1046 11.5 14 10.6046 14 9.5C14 8.39543 13.1046 7.5 12 7.5C10.8954 7.5 10 8.39543 10 9.5C10 10.6046 10.8954 11.5 12 11.5Z" fill="#CBD5E1"/>
<path fill-rule="evenodd" clip-rule="evenodd" d="M19 9.5C19 11.0771 18.25 12.5 17.5984 13.7028L12 23.5L6.40163 13.7028C5.75 12.5324 5 11.0771 5 9.5C5 5.63401 8.13401 2.5 12 2.5C15.866 2.5 19 5.63401 19 9.5ZM17 9.5C17 10.4922 16.5264 11.4816 15.8506 12.7304L12 19.4689L8.14371 12.7204C7.48331 11.5333 7 10.4966 7 9.5C7 6.73858 9.23858 4.5 12 4.5C14.7614 4.5 17 6.73858 17 9.5Z" fill="#CBD5E1"/>
</svg>
