<svg width="25" height="24" viewBox="0 0 25 24" fill="none" xmlns="http://www.w3.org/2000/svg">
<path d="M12.5 2C6.98 2 2.5 6.48 2.5 12C2.5 17.52 6.98 22 12.5 22C18.02 22 22.5 17.52 22.5 12C22.5 6.48 18.02 2 12.5 2ZM13.5 5.3L14.85 4.35C16.67 4.91 18.22 6.11 19.23 7.69L18.84 9.03L17.49 9.49L13.5 6.7V5.3ZM10.15 4.35L11.5 5.3V6.7L7.51 9.49L6.16 9.03L5.77 7.69C6.78 6.12 8.33 4.92 10.15 4.35ZM7.58 17.11L6.44 17.21C5.23 15.81 4.5 13.99 4.5 12C4.5 11.88 4.51 11.77 4.52 11.65L5.52 10.92L6.9 11.4L8.36 15.74L7.58 17.11ZM15 19.59C14.21 19.85 13.37 20 12.5 20C11.63 20 10.79 19.85 10 19.59L9.31 18.1L9.95 17H15.06L15.7 18.11L15 19.59ZM14.77 15H10.23L8.88 10.98L12.5 8.44L16.13 10.98L14.77 15ZM18.56 17.21L17.42 17.11L16.63 15.74L18.09 11.4L19.48 10.93L20.48 11.66C20.49 11.77 20.5 11.88 20.5 12C20.5 13.99 19.77 15.81 18.56 17.21Z" fill="#CBD5E1"/>
</svg>
