<svg width="25" height="24" viewBox="0 0 25 24" fill="none" xmlns="http://www.w3.org/2000/svg">
<path d="M12.5469 2C7.02688 2 2.54688 6.48 2.54688 12C2.54688 17.52 7.02688 22 12.5469 22C18.0669 22 22.5469 17.52 22.5469 12C22.5469 6.48 18.0669 2 12.5469 2ZM13.5469 5.3L14.8969 4.35C16.7169 4.91 18.2669 6.11 19.2769 7.69L18.8869 9.03L17.5369 9.49L13.5469 6.7V5.3ZM10.1969 4.35L11.5469 5.3V6.7L7.55688 9.49L6.20687 9.03L5.81687 7.69C6.82687 6.12 8.37687 4.92 10.1969 4.35ZM7.62687 17.11L6.48688 17.21C5.27688 15.81 4.54688 13.99 4.54688 12C4.54688 11.88 4.55687 11.77 4.56687 11.65L5.56687 10.92L6.94688 11.4L8.40688 15.74L7.62687 17.11ZM15.0469 19.59C14.2569 19.85 13.4169 20 12.5469 20C11.6769 20 10.8369 19.85 10.0469 19.59L9.35688 18.1L9.99687 17H15.1069L15.7469 18.11L15.0469 19.59ZM14.8169 15H10.2769L8.92688 10.98L12.5469 8.44L16.1769 10.98L14.8169 15ZM18.6069 17.21L17.4669 17.11L16.6769 15.74L18.1369 11.4L19.5269 10.93L20.5269 11.66C20.5369 11.77 20.5469 11.88 20.5469 12C20.5469 13.99 19.8169 15.81 18.6069 17.21Z" fill="#16A34A"/>
</svg>
