<svg width="24" height="25" viewBox="0 0 24 25" fill="none" xmlns="http://www.w3.org/2000/svg">
<path d="M16.7071 7.79289C17.0977 8.18342 17.0977 8.81658 16.7071 9.20711L13.4142 12.5L14.7071 13.7929C15.0976 14.1834 15.0976 14.8166 14.7071 15.2071C14.3166 15.5976 13.6834 15.5976 13.2929 15.2071L11.2929 13.2071C10.9024 12.8166 10.9024 12.1834 11.2929 11.7929L11.2974 11.7884L15.2929 7.79289C15.6834 7.40237 16.3166 7.40237 16.7071 7.79289Z" fill="#CBD5E1"/>
<path fill-rule="evenodd" clip-rule="evenodd" d="M22 12.5C22 18.0228 17.5228 22.5 12 22.5C6.47715 22.5 2 18.0228 2 12.5C2 6.97715 6.47715 2.5 12 2.5C17.5228 2.5 22 6.97715 22 12.5ZM20 12.5C20 16.9183 16.4183 20.5 12 20.5C7.58172 20.5 4 16.9183 4 12.5C4 8.08172 7.58172 4.5 12 4.5C16.4183 4.5 20 8.08172 20 12.5Z" fill="#CBD5E1"/>
</svg>
