<svg width="24" height="24" viewBox="0 0 24 24" fill="none" xmlns="http://www.w3.org/2000/svg">
<path d="M20.7101 16.465L17.3401 13.085C17.9801 13.305 18.5701 13.565 19.1101 13.845C20.0801 14.355 20.6901 15.365 20.7101 16.465ZM21.9001 20.485L20.4901 21.895L17.8801 19.295H4.7101V16.515C4.7101 15.395 5.3201 14.365 6.3201 13.855C7.6101 13.195 9.1901 12.635 10.9901 12.405L2.1001 3.51498L3.5101 2.10498L21.9001 20.485ZM15.8801 17.295L12.8801 14.295C12.8201 14.295 12.7701 14.295 12.7101 14.295C10.3401 14.295 8.4201 15.025 7.2301 15.635C6.9101 15.795 6.7101 16.135 6.7101 16.515V17.295H15.8801ZM12.7101 5.29498C13.8101 5.29498 14.7101 6.19498 14.7101 7.29498C14.7101 8.15498 14.1701 8.88498 13.4101 9.16498L14.8901 10.645C15.9901 9.93498 16.7101 8.69498 16.7101 7.29498C16.7101 5.08498 14.9201 3.29498 12.7101 3.29498C11.3101 3.29498 10.0701 4.01498 9.3601 5.11498L10.8401 6.59498C11.1201 5.83498 11.8501 5.29498 12.7101 5.29498Z" fill="#171717"/>
</svg>
