<svg width="24" height="24" viewBox="0 0 24 24" fill="none" xmlns="http://www.w3.org/2000/svg">
<path fill-rule="evenodd" clip-rule="evenodd" d="M12 13C12 17.1422 9.53757 19 6.5 19C3.46243 19 1 17.1422 1 13C1 8.85785 4.5 4 6.5 4C8.5 4 12 8.85785 12 13ZM6.98807 7.10846C7.04797 6.83887 6.87802 6.57178 6.60846 6.5119C6.3389 6.45197 6.07181 6.62195 6.0119 6.89154C5.75278 8.0575 5.71451 8.8949 5.79202 9.60144C5.85403 10.1663 5.99166 10.6411 6.12043 11.0854C6.14959 11.186 6.17846 11.2856 6.20572 11.3838C6.49353 12.4199 6.74615 13.7097 6.01279 16.8876C5.95071 17.1566 6.1185 17.4251 6.38757 17.4872C6.65662 17.5493 6.92508 17.3815 6.98718 17.1124C7.75381 13.7903 7.50644 12.3301 7.16925 11.1161C7.13651 10.9983 7.10419 10.8864 7.07291 10.778L7.07254 10.7767C6.94669 10.3407 6.83774 9.96312 6.78607 9.49231C6.72299 8.91754 6.74719 8.19244 6.98807 7.10846ZM4.7327 9.15771C4.81979 8.89569 4.67798 8.61267 4.41592 8.52551C4.15387 8.43842 3.87085 8.58026 3.78372 8.84229C3.561 9.51239 3.48639 10.0405 3.50198 10.5164C3.51669 10.965 3.61224 11.3464 3.70093 11.7004L3.7124 11.7463C3.88855 12.4509 4.08386 13.2491 3.76709 14.9061C3.71527 15.1774 3.8931 15.4393 4.16434 15.4911C4.43558 15.543 4.69748 15.3651 4.74933 15.0939C5.10159 13.251 4.88141 12.2991 4.68256 11.5037L4.67917 11.4901C4.58502 11.1136 4.5126 10.824 4.50146 10.4836C4.49042 10.147 4.53992 9.73761 4.7327 9.15771ZM9.7327 9.15771C9.81979 8.89569 9.67798 8.61267 9.41592 8.52551C9.15387 8.43842 8.87085 8.58026 8.78372 8.84229C8.561 9.51239 8.48639 10.0405 8.50198 10.5164C8.51669 10.965 8.61224 11.3464 8.70093 11.7004L8.7124 11.7463C8.88855 12.4509 9.08386 13.2491 8.76709 14.9061C8.71527 15.1774 8.8931 15.4393 9.16434 15.4911C9.43558 15.543 9.69748 15.3651 9.74933 15.0939C10.1016 13.251 9.88141 12.2991 9.68256 11.5037L9.67917 11.4901C9.58502 11.1136 9.5126 10.824 9.50146 10.4836C9.49042 10.147 9.53992 9.73761 9.7327 9.15771Z" fill="white"/>
<path fill-rule="evenodd" clip-rule="evenodd" d="M13 9.5C13 5.35785 15.4624 4 18.5 4C21.5376 4 24 5.35785 24 9.5C24 13.6422 18.5 16 18.5 16C18.5 16 13 13.6422 13 9.5ZM16 6L15.5 7.00006H17L18 8.00006L19 6.50006L21 7.00006V6C19.5 5 17.5 5 16 6Z" fill="white"/>
</svg>
