<svg width="24" height="24" viewBox="0 0 24 24" fill="none" xmlns="http://www.w3.org/2000/svg">
<path d="M14.7709 6.88957C14.1664 7.10993 13.6032 7.41895 13.0945 7.80418L13.3963 8.20279L13.0945 7.80418L13.0646 7.82683L13.0496 7.83815L13.0355 7.85057L13.0074 7.87539C12.7484 8.10399 12.3897 8.25 12 8.25C11.6823 8.25 11.3839 8.15295 11.1429 7.99118C10.5768 7.52251 9.92898 7.14763 9.22431 6.89097C10.0811 6.63927 11.0173 6.5 12 6.5C12.981 6.5 13.9155 6.63875 14.7709 6.88957ZM12 10.25C12.5304 10.25 13.0336 10.1318 13.4844 9.92042V10.0172L14.2862 9.41004C15.0407 8.83872 15.9801 8.5 17 8.5C19.4853 8.5 21.5 10.5147 21.5 13C21.5 15.4853 19.4853 17.5 17 17.5C15.9845 17.5 15.0662 17.1756 14.3158 16.6119C13.6987 16.0737 12.8774 15.75 12 15.75C11.238 15.75 10.5187 15.9941 9.93897 16.4102L9.92261 16.4219L9.90725 16.4349C9.12281 17.0996 8.10881 17.5 7 17.5C4.51472 17.5 2.5 15.4853 2.5 13C2.5 10.5147 4.51472 8.5 7 8.5C8.10881 8.5 9.12281 8.90039 9.90725 9.56506L9.92261 9.57807L9.93897 9.58981C10.5187 10.0059 11.238 10.25 12 10.25ZM7 16.5C8.933 16.5 10.5 14.933 10.5 13C10.5 11.067 8.933 9.5 7 9.5C5.067 9.5 3.5 11.067 3.5 13C3.5 14.933 5.067 16.5 7 16.5ZM17 16.5C18.933 16.5 20.5 14.933 20.5 13C20.5 11.067 18.933 9.5 17 9.5C15.067 9.5 13.5 11.067 13.5 13C13.5 14.933 15.067 16.5 17 16.5Z" fill="white" stroke="white"/>
</svg>
