<svg width="24" height="24" viewBox="0 0 24 24" fill="none" xmlns="http://www.w3.org/2000/svg">
<path d="M12 7.40002C12.5522 7.40002 13.5 6.79999 13.5 6C13.5 4.89545 12 3 12 3C12 3 10.5 4.79541 10.5 5.90002C10.5 6.70001 11.4477 7.40002 12 7.40002Z" fill="white"/>
<path d="M11.317 9C11.9672 9.65021 11.83 10.487 11.317 11C10.804 11.513 9.96724 11.6502 9.31703 11C8.41927 10.1022 8.31703 7.5 8.31703 7.5C8.31703 7.5 10.4192 8.10223 11.317 9Z" fill="white"/>
<path d="M13 9C12.3497 9.65021 12.487 10.487 13 11C13.513 11.513 14.3497 11.6502 15 11C15.8977 10.1022 16 7.5 16 7.5C16 7.5 13.8978 8.10223 13 9Z" fill="white"/>
<path d="M13.5 15.5C12.7696 14.8948 12.7329 13.9257 13.5 13.0001C14.5591 11.7219 17 11 17 11C17 11 17.0591 13.7219 16 15C15.2328 15.9257 14.2303 16.1052 13.5 15.5Z" fill="white"/>
<path d="M10.817 13.0001C11.5841 13.9257 11.5474 14.8948 10.817 15.5C10.0867 16.1052 9.08415 15.9257 8.31703 15C7.25789 13.7219 7.31703 11 7.31703 11C7.31703 11 9.75789 11.7219 10.817 13.0001Z" fill="white"/>
<path d="M13.5 21.151C12.7696 20.5458 12.7329 19.0767 13.5 18.151C14.5591 16.8729 17.5 16.151 17.5 16.151C17.5 16.151 17.5591 19.7781 16.5 21.0563C15.7329 21.9819 14.2303 21.7562 13.5 21.151Z" fill="white"/>
<path d="M10.817 18.151C11.5841 19.0767 11.5474 20.5458 10.817 21.151C10.0867 21.7562 8.58412 21.9819 7.81703 21.0563C6.75789 19.7781 6.817 16.151 6.817 16.151C6.817 16.151 9.75786 16.8729 10.817 18.151Z" fill="white"/>
</svg>
