<svg width="24" height="24" viewBox="0 0 24 24" fill="none" xmlns="http://www.w3.org/2000/svg">
<path d="M4.99994 3V5H6.99994C6.99994 5.9118 6.38977 6.68115 5.55542 6.92188C5.65103 7.65399 5.86886 8.21686 6.19943 8.62091C6.50964 9.00006 6.95346 9.28027 7.58731 9.41345C7.83798 8.59509 8.59945 8 9.49994 8H9.99994V6.5C9.99994 6.22388 10.2238 6 10.4999 6C10.7761 6 10.9999 6.22388 10.9999 6.5V8H12.9999V6.5C12.9999 6.22388 13.2238 6 13.4999 6C13.7761 6 13.9999 6.22388 13.9999 6.5V8H14.4999C15.4004 8 16.1619 8.59509 16.4126 9.41345C17.0464 9.28027 17.4902 9.00006 17.8005 8.62091C18.131 8.21686 18.3488 7.65399 18.4445 6.92188C17.6101 6.68115 16.9999 5.9118 16.9999 5H18.9999V3C20.1045 3 20.9999 3.89545 20.9999 5C20.9999 5.95038 20.3371 6.74591 19.4485 6.94952C19.344 7.85437 19.0737 8.64392 18.5744 9.25409C18.0705 9.87006 17.3739 10.2551 16.4999 10.4149V11.0087C17.4993 11.045 18.484 11.2059 19.3814 11.6771C20.4567 12.2416 21.2884 13.1869 21.9138 14.5939C22.1381 15.0985 21.9108 15.6895 21.4061 15.9138C20.9014 16.1381 20.3104 15.9108 20.0861 15.4061C19.6003 14.3131 19.0431 13.7584 18.4518 13.4479C17.9283 13.173 17.2913 13.043 16.4715 13.0092C16.4226 13.443 16.3121 13.8581 16.1488 14.2456C16.6416 14.4124 17.0853 14.6711 17.457 15.0429C18.2107 15.7966 18.4999 16.8458 18.4999 18C18.4999 18.5523 18.0522 19 17.4999 19C16.9477 19 16.4999 18.5523 16.4999 18C16.4999 17.1542 16.2892 16.7034 16.0428 16.4571C15.8291 16.2434 15.4615 16.0564 14.8154 16.0107C14.0445 16.6296 13.0655 17 11.9999 17C10.9344 17 9.95535 16.6297 9.18451 16.0107C8.53839 16.0564 8.17077 16.2434 7.95703 16.4571C7.71072 16.7034 7.49994 17.1542 7.49994 18C7.49994 18.5523 7.05221 19 6.49994 19C5.94766 19 5.49994 18.5523 5.49994 18C5.49994 16.8458 5.78915 15.7966 6.54284 15.0429C6.91461 14.6711 7.3583 14.4124 7.85104 14.2456C7.69571 13.8768 7.5881 13.483 7.53595 13.072C6.91266 13.1431 6.37402 13.2716 5.90075 13.4786C5.12753 13.817 4.45428 14.3981 3.88229 15.4706C3.6224 15.9579 3.01666 16.1422 2.52936 15.8823C2.04205 15.6224 1.85769 15.0167 2.11761 14.5294C2.87893 13.1019 3.87237 12.183 5.09912 11.6463C5.85089 11.3174 6.65924 11.1462 7.49994 11.0646V10.4149C6.62594 10.2551 5.92938 9.87006 5.42544 9.25409C4.92621 8.64392 4.65585 7.85437 4.55142 6.94952C3.66281 6.74591 2.99994 5.95038 2.99994 5C2.99994 3.89545 3.89535 3 4.99994 3Z" fill="white"/>
</svg>
