<svg width="24" height="24" viewBox="0 0 24 24" fill="none" xmlns="http://www.w3.org/2000/svg">
<path fill-rule="evenodd" clip-rule="evenodd" d="M3.12289 12C4.74737 14.9657 8.1607 17 12.1625 17C15.879 17 19.2365 14.9825 20.8762 12C19.2365 9.01746 15.879 7 12.1625 7C8.1607 7 4.74737 9.03434 3.12289 12ZM22.8978 11.559C21.0053 7.62124 16.7877 5 12.1625 5C7.2819 5 2.98827 7.60349 1.10109 11.5623C1.09432 11.5762 1.08788 11.5903 1.08176 11.6045C0.976583 11.849 0.968975 12.1341 1.08176 12.3955C1.08788 12.4097 1.09432 12.4238 1.10109 12.4377C2.98827 16.3965 7.2819 19 12.1625 19C16.7877 19 21.0053 16.3788 22.8978 12.441C22.9052 12.4259 22.9122 12.4107 22.9188 12.3953C22.9742 12.2667 23.0006 12.1324 23.0005 12C23.0006 11.8676 22.9742 11.7333 22.9188 11.6047C22.9122 11.5893 22.9052 11.5741 22.8978 11.559Z" fill="white"/>
<path d="M15 12C15 13.6569 13.6569 15 12 15C10.3431 15 9 13.6569 9 12C9 10.3431 10.3431 9 12 9C13.6569 9 15 10.3431 15 12Z" fill="white"/>
</svg>
