<svg width="24" height="24" viewBox="0 0 24 24" fill="none" xmlns="http://www.w3.org/2000/svg">
<path d="M15.5 3.98148H2.5C2.22386 3.98148 2 4.21363 2 4.5V16C0.895431 16 0 15.0714 0 13.9259V4.07407C0 2.92859 0.895431 2 2 2H16C17.0807 2 17.9611 2.88883 17.9987 4H15.6329C15.5906 3.98793 15.546 3.98148 15.5 3.98148Z" fill="white"/>
<path d="M18 16H8V14.0236C8.41647 13.8909 8.95394 13.839 9.77686 13.9708C12.4388 14.3946 13.1046 14.2028 13.9362 13.5689L13.9645 13.5472C14.6196 13.045 16.3267 11.7361 18 12.0472V16Z" fill="white"/>
<path fill-rule="evenodd" clip-rule="evenodd" d="M6 6C4.89543 6 4 6.92859 4 8.07407V17.9259C4 19.0714 4.89543 20 6 20H20C21.1046 20 22 19.0714 22 17.9259V8.07407C22 6.92859 21.1046 6 20 6H6ZM19.5 7.98148H6.5C6.22386 7.98148 6 8.21363 6 8.5V17.4815C6 17.7678 6.22386 18 6.5 18H19.5C19.7761 18 20 17.7678 20 17.4815V8.5C20 8.21363 19.7761 7.98148 19.5 7.98148Z" fill="white"/>
</svg>
