<svg width="24" height="24" viewBox="0 0 24 24" fill="none" xmlns="http://www.w3.org/2000/svg">
<path d="M16 4.00002H4C2.89543 4.00002 2 4.92861 2 6.07409V17.9259C2 19.0714 2.89543 20 4 20H20C21.1046 20 22 19.0714 22 17.9259V10H20V17.4815C20 17.7679 19.7761 18 19.5 18H4.5C4.22386 18 4 17.7679 4 17.4815V6.50002C4 6.21365 4.22386 5.9815 4.5 5.9815H16V4.00002Z" fill="white"/>
<path d="M18 16H6V14C6.49977 13.8657 7.14473 13.8132 8.13223 13.9466C11.3266 14.3754 12.1255 14.1814 13.1235 13.5399C13.8831 13.049 15.9624 11.6805 18 12V16Z" fill="white"/>
<path d="M18 4.00002H24V6.00002H18V4.00002Z" fill="white"/>
<path d="M22 2V8H20V2L22 2Z" fill="white"/>
</svg>
