<svg width="24" height="24" viewBox="0 0 24 24" fill="none" xmlns="http://www.w3.org/2000/svg">
<path fill-rule="evenodd" clip-rule="evenodd" d="M11 1C11 0.447715 11.4477 0 12 0C12.5523 0 13 0.447715 13 1V4.17071C13.8524 4.47199 14.528 5.14759 14.8293 6H19.5L23 16C22.3084 17.1956 20.9806 18 19.5 18C18.0194 18 16.6916 17.1956 16 16L18.8 8H14.8293C14.528 8.85241 13.8524 9.52801 13 9.82929V22.25L20 24H4L11 22.25V9.82929C10.1476 9.52801 9.47199 8.85241 9.17071 8H5.2L8 16C7.30838 17.1956 5.98056 18 4.5 18C3.01944 18 1.69162 17.1956 1 16L4.5 6H9.17071C9.47199 5.14759 10.1476 4.47199 11 4.17071V1ZM11 7C11 6.44772 11.4477 6 12 6C12.5523 6 13 6.44772 13 7C13 7.55228 12.5523 8 12 8C11.4477 8 11 7.55228 11 7ZM4.5 9.02709L6.59052 15H2.40948L4.5 9.02709ZM21.5905 15L19.5 9.02709L17.4095 15H21.5905Z" fill="white"/>
</svg>
