<svg width="24" height="24" viewBox="0 0 24 24" fill="none" xmlns="http://www.w3.org/2000/svg">
<path fill-rule="evenodd" clip-rule="evenodd" d="M2 2H8V8H2V2ZM6 6H4V4H6V6Z" fill="white"/>
<path fill-rule="evenodd" clip-rule="evenodd" d="M16 2H22V8H16V2ZM20 4V6H18V4H20Z" fill="white"/>
<path fill-rule="evenodd" clip-rule="evenodd" d="M22 16H16V22H22V16ZM18 20H20V18H18V20Z" fill="white"/>
<path fill-rule="evenodd" clip-rule="evenodd" d="M2 16V22H8V16H2ZM6 20V18H4V20H6Z" fill="white"/>
<path d="M7 11V9H9V6H11V8H15V9H17V11H20V13H22V15H18V13H17V15H15V22H11V20H13V18H11V17H9V15H11V16H13V14H15V10H13V14H9V15H7V13H9V12H11V10H9V11H7Z" fill="white"/>
<path d="M7 11V13H6V15H4V13H2V9H4V11H7Z" fill="white"/>
<path d="M11 18V20H9V18H11Z" fill="white"/>
<path d="M20 11V9H22V11H20Z" fill="white"/>
<path d="M15 6H11V4H13V2H15V6Z" fill="white"/>
<path d="M11 4H9V2H11V4Z" fill="white"/>
</svg>
