<svg width="24" height="24" viewBox="0 0 24 24" fill="none" xmlns="http://www.w3.org/2000/svg">
<path fill-rule="evenodd" clip-rule="evenodd" d="M7.49994 13C7.82937 13 8.14817 12.9545 8.45039 12.8694C8.29274 13.1263 8.11203 13.3487 7.91783 13.5429C7.11726 14.3435 5.96439 14.7873 4.80382 15.0194L3.82324 15.2155L4.21547 17.1767L5.19606 16.9806C6.53549 16.7127 8.13262 16.1565 9.33205 14.9571C10.5664 13.7228 11.2631 11.9247 10.9995 9.44145C10.7934 7.5 9.41338 6 7.49994 6C5.56694 6 3.99994 7.567 3.99994 9.5C3.99994 11.433 5.56694 13 7.49994 13ZM17.4504 12.8694C17.1482 12.9545 16.8294 13 16.4999 13C14.5669 13 12.9999 11.433 12.9999 9.5C12.9999 7.567 14.5669 6 16.4999 6C18.4134 6 19.7934 7.5 19.9995 9.44146C20.2631 11.9247 19.5664 13.7228 18.332 14.9571C17.1326 16.1565 15.5355 16.7127 14.1961 16.9806L13.2155 17.1767L12.8232 15.2155L13.8038 15.0194C14.9644 14.7873 16.1173 14.3435 16.9178 13.5429C17.112 13.3487 17.2927 13.1263 17.4504 12.8694Z" fill="white"/>
</svg>
