<svg width="24" height="24" viewBox="0 0 24 24" fill="none" xmlns="http://www.w3.org/2000/svg">
<path fill-rule="evenodd" clip-rule="evenodd" d="M12 20C16.4183 20 20 16.4183 20 12C20 7.58172 16.4183 4 12 4C7.58172 4 4 7.58172 4 12C4 16.4183 7.58172 20 12 20ZM12 22C17.5228 22 22 17.5228 22 12C22 6.47715 17.5228 2 12 2C6.47715 2 2 6.47715 2 12C2 17.5228 6.47715 22 12 22Z" fill="white"/>
<path d="M18.7071 6.70711C19.0976 6.31658 19.0976 5.68342 18.7071 5.29289C18.3166 4.90237 17.6834 4.90237 17.2929 5.29289L15.625 6.96076C14.559 6.06793 13.2677 5.75 12.0625 5.75C10.476 5.75 8.95637 6.29437 8.08398 6.87596C12 6 12.7071 6.70711 14.5576 8.0282L13.5352 9.05062C13.4023 8.96905 13.2667 8.89924 13.1286 8.84071C12.5959 8.61493 12.0716 8.57622 11.6023 8.62985C10.8194 8.71933 10.1288 9.08462 9.78896 9.26438C9.73995 9.2903 9.69824 9.31236 9.6646 9.32918C11 9.26438 12 9.5 12.4122 10.1736L11.2929 11.2929C10.9024 11.6834 10.9024 12.3166 11.2929 12.7071C11.6834 13.0976 12.3166 13.0976 12.7071 12.7071L18.7071 6.70711Z" fill="white"/>
</svg>
