<svg width="24" height="24" viewBox="0 0 24 24" fill="none" xmlns="http://www.w3.org/2000/svg">
<path d="M7.66787 17.7861C7.84074 17.7178 8.01361 17.6495 8.18487 17.5811C8.18487 17.6145 8.18487 17.6145 8.18487 17.6495C8.59944 17.4779 8.90996 17.1013 9.28932 16.9647C9.32453 16.9647 9.39336 17.033 9.42697 16.998C9.70388 16.7931 9.97919 16.5531 10.3249 16.5865C10.3249 16.6215 10.3249 16.6548 10.3601 16.6548C10.3954 16.6548 10.3954 16.6548 10.3954 16.6215C10.2913 16.6898 10.1873 16.7931 10.0848 16.8614C10.0496 16.8948 10.0848 16.9297 10.12 16.9297C10.2577 16.8614 10.3265 16.7581 10.4658 16.6898C10.4306 16.7232 10.4306 16.7931 10.397 16.8264C9.91357 17.168 9.56783 17.5795 9.18847 17.9911H5.87515C6.2545 17.9227 6.63385 17.8195 7.0148 17.7861C7.21969 17.7861 7.42617 17.8195 7.66787 17.7861Z" fill="white"/>
<path d="M18.5058 16.3816C18.5746 16.1766 18.6435 15.97 18.541 15.7651C18.3681 15.5252 18.7139 15.4568 18.8163 15.2852C18.8852 15.1486 18.7923 14.9707 18.7475 14.9421C18.6915 14.8912 18.6098 14.9087 18.541 14.8054C18.7475 14.7371 19.0244 14.5655 18.8852 14.3256C18.8163 14.1889 18.6787 13.9824 18.8515 13.8457C19.0244 13.7425 19.3349 13.7425 19.4374 13.5725C19.575 13.2293 19.2645 12.956 19.0916 12.6811C19.0228 12.5445 18.8852 12.4062 18.7811 12.2696C18.6771 12.0646 18.5394 11.893 18.4706 11.6865C18.4018 11.4815 18.5058 11.275 18.5058 11.07C18.541 10.6585 18.437 10.2486 18.3329 9.83708C18.2305 9.63052 18.2305 9.42556 18.1264 9.2206C18.0928 9.11733 18.0928 9.01564 17.9888 8.91236C17.9536 8.84404 17.9536 8.77572 17.9888 8.7074C18.0928 8.63908 18.2305 8.53581 18.3329 8.43253C18.4018 8.29589 18.3329 8.12429 18.2305 8.02102C18.024 7.9527 18.0576 8.22598 17.92 8.26094C17.8864 8.26094 17.8511 8.26094 17.8159 8.26094C17.8159 8.19261 17.8511 8.15766 17.92 8.12429C17.92 8.08934 17.92 8.02102 17.8864 8.02102C17.7823 8.02102 17.6783 7.98606 17.6447 7.9527C17.3693 7.57614 16.9884 7.37118 16.5738 7.19958C16.6779 7.23454 16.7803 7.2679 16.8844 7.2679C17.0908 7.30286 17.2989 7.30286 17.4718 7.19958C17.6094 7.16622 17.6447 6.9263 17.6783 6.78807C17.7471 6.68479 17.6783 6.5132 17.6094 6.44488C17.4718 6.23992 17.2989 6.10328 17.0924 6H24V17.9911H14.6066C14.7795 17.4779 15.09 16.998 15.5382 16.6898C15.6423 16.6215 15.7799 16.5865 15.9176 16.5531C16.401 16.5531 16.8491 16.6898 17.3325 16.7581C17.4382 16.7724 17.4718 16.7851 17.5886 16.7994C17.7679 16.8137 17.8495 16.828 18.0224 16.7931C18.2305 16.7232 18.437 16.6215 18.5058 16.3816Z" fill="white"/>
<path d="M17.4702 11.0017C17.2973 10.9683 17.1597 11.0017 16.9868 11.0017C16.7803 11.07 16.6074 11.07 16.3994 11.1733C16.5722 11.07 16.7099 10.9334 16.9164 10.9C17.054 10.8651 17.1933 10.7967 17.3309 10.7967C17.5038 10.7634 17.6751 10.6935 17.8143 10.7634C17.952 10.7967 18.1601 10.7967 18.1937 10.9C18.2289 11.0716 18.0896 11.2083 17.952 11.3449C17.9168 11.3783 18.0208 11.4132 18.0208 11.4815C17.9872 11.5165 17.9168 11.5499 17.8479 11.5499C17.8127 11.5848 17.7439 11.6531 17.6751 11.7215C17.7439 11.7215 17.6751 11.7898 17.7439 11.7898C17.6399 11.9264 17.8127 12.2013 17.6399 12.2696C17.4334 12.303 17.2253 12.303 16.9836 12.2696C17.1212 12.2347 17.2605 12.2696 17.3293 12.1663C17.3293 12.1314 17.3293 12.098 17.3293 12.0631C17.3293 12.0297 17.2941 12.0297 17.2605 12.0297C17.2605 12.0631 17.2253 12.0631 17.2253 12.0631C17.2253 11.9947 17.1565 11.9598 17.1212 11.9598C16.9836 11.9931 16.8443 11.8915 16.7067 11.7882C16.8107 11.7532 16.8796 11.7199 16.982 11.7532C17.0508 11.7532 17.0172 11.6166 17.1196 11.5816C17.1196 11.5816 17.1533 11.5816 17.1885 11.5816C17.3613 11.3417 17.6719 11.3068 17.7407 11.0668C17.7471 11.0367 17.5742 11.0367 17.4702 11.0017Z" fill="white"/>
<path d="M2.4914 14.2223C2.52661 14.1889 2.56022 14.154 2.56022 14.1206C2.56022 14.0857 2.56022 14.0523 2.56022 14.0523C2.42257 14.0857 2.35374 14.1889 2.31853 14.2922C2.31853 14.3256 2.35374 14.3256 2.38735 14.3256C2.42097 14.2906 2.45618 14.2906 2.4914 14.2223Z" fill="white"/>
<path d="M3.27501 14.9181C3.33674 14.908 3.39855 14.8967 3.45658 14.8737C3.40444 14.8737 3.34723 14.8933 3.29255 14.9121L3.27501 14.9181Z" fill="white"/>
<path fill-rule="evenodd" clip-rule="evenodd" d="M4.52485 13.5112C4.59568 13.4976 4.66562 13.4842 4.73389 13.4692C4.81327 13.4465 4.8917 13.4229 4.96949 13.3996C5.36541 13.2807 5.74485 13.1667 6.14886 13.1959C6.07626 13.1726 6.00365 13.1818 5.94302 13.1895C5.91676 13.1929 5.89275 13.1959 5.87195 13.1959C5.58031 13.169 5.28867 13.2239 4.98103 13.2817C4.88851 13.2991 4.79453 13.3168 4.69868 13.3325C4.56022 13.3667 4.43097 13.4096 4.30172 13.4525C4.17247 13.4954 4.04322 13.5383 3.90476 13.5725C3.83219 13.5871 3.77174 13.6256 3.71325 13.6629C3.6324 13.7143 3.55528 13.7634 3.45498 13.7441V13.6757C3.73189 13.3341 4.04242 13.0243 4.4906 12.9909C4.97399 12.9226 5.45738 12.9909 5.94078 13.0593C6.2374 13.0866 6.49193 13.1343 6.7702 13.1865C6.84781 13.2011 6.92727 13.216 7.01 13.2309C7.07983 13.2309 7.11465 13.2912 7.14936 13.3513C7.18387 13.4111 7.21829 13.4708 7.28691 13.4708C7.3427 13.4985 7.40426 13.5037 7.46926 13.5093C7.56467 13.5174 7.66749 13.5261 7.77031 13.6074C7.77031 13.5833 7.7661 13.5589 7.76215 13.536C7.75494 13.4942 7.74858 13.4574 7.77031 13.4358C7.82655 13.38 7.89262 13.3943 7.9579 13.4084C8.01336 13.4204 8.06825 13.4323 8.11605 13.4009C8.28427 13.3047 8.13459 13.1592 7.98162 13.0105C7.91481 12.9456 7.84737 12.8801 7.80552 12.8178L7.84074 12.7844C7.94116 12.8557 8.02362 12.9388 8.10557 13.0214C8.22086 13.1375 8.33514 13.2527 8.497 13.3325C8.50849 13.3354 8.52137 13.3388 8.5353 13.3424C8.69023 13.3827 8.97471 13.4566 8.91156 13.2992C8.81886 13.0905 8.66374 12.9136 8.50875 12.7368C8.4336 12.6511 8.35847 12.5654 8.29051 12.4762V12.3729C8.22169 12.3729 8.22169 12.3395 8.22169 12.3046V12.2013C8.1253 12.1534 8.11367 12.0885 8.10327 12.0304C8.09882 12.0055 8.09459 11.9819 8.08403 11.9614C8.02623 11.8855 8.02179 11.788 8.01745 11.6929C8.01398 11.6168 8.01058 11.5423 7.97999 11.4815C7.964 11.4036 7.94802 11.3329 7.93218 11.2629C7.91313 11.1787 7.8943 11.0954 7.87595 11.0017C7.84582 10.7923 7.80249 10.6021 7.76034 10.4171C7.70622 10.1796 7.65405 9.95052 7.63425 9.70043C7.5833 9.32053 7.77795 8.99635 7.98055 8.65893C8.05163 8.54054 8.1237 8.42052 8.18647 8.29589C8.35934 7.98765 8.59944 7.64446 8.94518 7.4395C9.005 7.14124 9.19538 6.89458 9.37974 6.65572C9.40746 6.61981 9.4352 6.58387 9.46218 6.54815C9.70388 6.27328 10.0144 6.13664 10.3249 6H0V17.9911H2.21128C2.36821 17.7693 2.64187 17.7055 2.91835 17.6412C3.06771 17.6064 3.21789 17.5714 3.35094 17.5112C3.44508 17.465 3.55458 17.4813 3.65818 17.4967C3.70783 17.5041 3.75612 17.5112 3.80072 17.5112C3.90476 17.5112 3.97359 17.5112 4.04242 17.5462C3.92157 17.6145 3.80072 17.6916 3.67987 17.7686C3.55902 17.8457 3.43817 17.9227 3.31733 17.9911H4.6099C4.6388 18.0112 4.69868 17.9911 4.69868 17.9911H4.76751C4.85394 17.9569 4.93157 17.914 5.0092 17.8711C5.08683 17.8282 5.16446 17.7853 5.2509 17.7511C5.04808 17.7855 4.87768 17.8857 4.70787 17.9857L4.69868 17.9911H4.6099C4.6007 17.9847 4.59464 17.9742 4.59464 17.9577C4.61436 17.9194 4.64464 17.9026 4.67955 17.8832C4.70696 17.8679 4.73723 17.8511 4.76751 17.8211C4.80112 17.8211 4.83633 17.8211 4.83633 17.856C5.3653 17.4352 6.02423 17.3369 6.69359 17.237C7.11597 17.174 7.54252 17.1103 7.94318 16.9647C7.96906 16.9521 7.99494 16.9344 8.02269 16.9154C8.06874 16.8839 8.11995 16.8488 8.18487 16.828C8.24425 16.7979 8.29738 16.7553 8.35247 16.7111C8.42509 16.6529 8.50114 16.592 8.59944 16.5531C8.80592 16.3816 8.97879 16.1766 9.04762 15.9017L9.01401 15.8684C8.66827 16.2449 8.2537 16.5531 7.80552 16.7581C7.42729 16.9692 7.001 17.0037 6.58118 17.0376C6.38805 17.0533 6.19629 17.0688 6.0112 17.1013C6.04482 17.033 6.08003 17.033 6.14886 17.033C6.14886 16.9647 6.18407 16.9297 6.2529 16.8614H6.32173C6.33954 16.8614 6.34834 16.8528 6.35704 16.8444C6.36554 16.8362 6.37395 16.828 6.39056 16.828C6.46099 16.828 6.52981 16.7931 6.4946 16.7931C6.4592 16.7399 6.39627 16.7595 6.32477 16.7818C6.25726 16.8028 6.1821 16.8262 6.11525 16.7931C6.15529 16.7524 6.16012 16.7122 6.16409 16.6792C6.16694 16.6555 6.16935 16.6354 6.18407 16.6215H6.32173C6.32173 16.5531 6.35694 16.5182 6.35694 16.5182C6.77151 16.2799 7.15086 16.0733 7.53021 15.8684C7.50381 15.8684 7.4826 15.8784 7.4606 15.8888C7.42524 15.9056 7.38787 15.9233 7.32373 15.9017C7.35814 15.9017 7.35814 15.8759 7.35814 15.8501C7.35814 15.8243 7.35814 15.7984 7.39256 15.7984C7.55897 15.7574 7.7248 15.679 7.89076 15.6006C8.00095 15.5486 8.11119 15.4965 8.22169 15.4553C8.18559 15.4553 8.15374 15.4635 8.12318 15.4714C8.06566 15.4862 8.01273 15.4999 7.94478 15.4553C7.95257 15.4475 7.96045 15.4379 7.96881 15.4277C7.99653 15.3939 8.02956 15.3536 8.08243 15.3536V15.2852C8.08243 15.2503 8.11765 15.2503 8.15126 15.2503C8.11765 15.2503 8.08243 15.2153 8.08243 15.2153C8.09654 15.202 8.12143 15.1993 8.14836 15.1964C8.18867 15.1921 8.23355 15.1873 8.2537 15.1454C8.22009 15.1454 8.18487 15.1454 8.18487 15.1121C8.2553 15.0088 8.39296 14.9738 8.53061 14.9405C8.51301 14.9238 8.48699 14.9238 8.46539 14.9238C8.44378 14.9238 8.42657 14.9238 8.42657 14.9071C8.42657 14.8737 8.46018 14.8737 8.4954 14.8737H8.42657C8.37525 14.8477 8.38177 14.8225 8.38841 14.7969C8.39068 14.7881 8.39296 14.7793 8.39296 14.7705C8.5153 14.6254 8.55106 14.4628 8.58534 14.307C8.5995 14.2426 8.6134 14.1794 8.63305 14.119C8.63305 14.119 8.59784 14.119 8.59784 14.0841C8.32997 14.3822 7.90182 14.4886 7.49888 14.5887L7.45818 14.5989H7.32053C7.18287 14.6672 7.01 14.6672 6.87235 14.5639C6.78674 14.5432 6.74137 14.4954 6.69428 14.4458C6.66565 14.4156 6.63638 14.3848 6.59704 14.3589C6.35534 14.2207 6.14886 14.119 5.90716 14.0158C5.21569 13.8108 4.4922 13.7075 3.76711 13.7425C4.01058 13.6099 4.27357 13.5594 4.52485 13.5112ZM3.07723 14.9071C3.04202 14.8388 3.11084 14.8054 3.21489 14.7705C3.2501 14.7586 3.28917 14.7508 3.32825 14.743C3.4046 14.7277 3.48096 14.7124 3.52861 14.6672C3.4635 14.654 3.38862 14.6555 3.31133 14.657C3.18343 14.6596 3.04893 14.6622 2.94118 14.5989C3.07883 14.2557 3.28531 13.9474 3.63105 13.7758C3.63105 13.7758 3.69988 13.7758 3.69988 13.8108C3.69988 13.9474 3.63105 14.0507 3.4934 14.0841C3.57944 14.1123 3.6652 14.1289 3.7533 14.1459C3.87825 14.1701 4.0079 14.1951 4.14966 14.2557C4.11444 14.2906 4.04562 14.2906 4.04562 14.2906C4.10128 14.3179 4.15669 14.3234 4.21194 14.3289C4.29492 14.3371 4.37755 14.3452 4.46018 14.4273C4.41634 14.4708 4.37251 14.4589 4.31957 14.4445C4.28939 14.4363 4.25626 14.4273 4.21849 14.4273C4.35154 14.4642 4.48535 14.4995 4.61918 14.5348C5.35469 14.7289 6.09085 14.9232 6.70428 15.3869C6.08323 15.6952 5.46218 15.8318 4.80592 15.9685C4.70188 15.9685 4.66827 15.9685 4.56423 15.9351V16.0384C4.42497 16.0384 4.35614 16.0384 4.28731 16.0733C4.18487 16.1416 4.012 16.1766 3.90796 16.0733C3.90796 16.0558 3.93357 16.0558 3.96358 16.0558C3.9936 16.0558 4.02801 16.0558 4.04562 16.0384H3.80392C3.76871 16.0384 3.76871 16.005 3.76871 15.97C3.69996 15.9875 3.63082 16.0046 3.56168 16.0216C3.49255 16.0387 3.42286 16.0559 3.35414 16.0733C3.2678 16.1019 3.18733 16.1424 3.10783 16.1824C2.99721 16.2381 2.88845 16.2929 2.76831 16.3132C2.62101 16.3622 2.4892 16.4495 2.35442 16.5387C2.20507 16.6375 2.05208 16.7388 1.87035 16.7931V16.7247C1.87035 16.6871 1.91222 16.6595 1.95569 16.631C1.99103 16.6077 2.02742 16.5838 2.04322 16.5531C2.04322 16.5182 2.04322 16.4848 2.008 16.4848C2.14762 16.3056 2.31107 16.1838 2.47786 16.0596C2.59789 15.9701 2.71965 15.8794 2.83553 15.7651V15.6968C2.86144 15.6579 2.89733 15.624 2.93381 15.5895C2.99423 15.5324 3.05627 15.4737 3.07723 15.3885C3.11244 15.3202 3.21649 15.2169 3.35414 15.1486C3.35414 15.1321 3.33733 15.1238 3.32033 15.1153C3.30292 15.1067 3.28531 15.098 3.28531 15.0803C3.2601 15.0803 3.23489 15.0822 3.2092 15.0842C3.12888 15.0905 3.04387 15.0971 2.93958 15.0453C2.99544 14.9892 3.06264 14.9617 3.13433 14.9441C3.11144 14.9403 3.09195 14.9292 3.07723 14.9071ZM2.07683 13.7091C1.79992 13.984 1.4894 14.2922 1.14526 14.4622C0.903561 14.9421 0.628251 15.3869 0.247298 15.8668C0.247298 15.9001 0.280912 15.9001 0.280912 15.9001C0.937175 15.1804 1.55822 14.5639 2.42097 14.0158C2.43533 14.0158 2.42067 14.0329 2.40533 14.0509C2.38306 14.077 2.35936 14.1048 2.42097 14.0841C2.71828 14.0308 2.84595 13.7897 2.96985 13.5557C3.00471 13.4899 3.03928 13.4247 3.07723 13.3643C3.19639 13.1678 3.37172 13.039 3.55151 12.9069C3.68567 12.8084 3.82232 12.708 3.93998 12.5763C3.93998 12.6096 3.93998 12.6446 3.90476 12.6795H4.0088C4.05259 12.6508 4.10233 12.64 4.15039 12.6297C4.21652 12.6154 4.27947 12.6018 4.31933 12.5429C4.11124 12.4396 3.83593 12.4062 3.62945 12.5079C3.04362 12.7844 2.56022 13.2293 2.07683 13.7091ZM4.61662 16.3303C4.64499 16.325 4.67331 16.3198 4.70028 16.3132C4.73389 16.2783 4.83793 16.21 4.87155 16.2433C4.91911 16.2905 4.96593 16.3059 5.01253 16.3211C5.03493 16.3284 5.05728 16.3358 5.07963 16.3466C4.98053 16.445 4.87038 16.453 4.75522 16.4614C4.6695 16.4677 4.58099 16.4741 4.4922 16.5182C4.47415 16.5182 4.4538 16.5206 4.43419 16.5229C4.37901 16.5294 4.32974 16.5352 4.35454 16.4848C4.38286 16.3737 4.50017 16.3519 4.61662 16.3303Z" fill="white"/>
</svg>
