<svg width="24" height="24" viewBox="0 0 24 24" fill="none" xmlns="http://www.w3.org/2000/svg">
<path fill-rule="evenodd" clip-rule="evenodd" d="M2 18H9V20H4V22H20V20H15V18H22C23.1046 18 24 17.0714 24 15.9259V4.07407C24 2.92859 23.1046 2 22 2H2C0.895431 2 0 2.92859 0 4.07407V15.9259C0 17.0714 0.89543 18 2 18ZM21.5 3.98148H2.5C2.22386 3.98148 2 4.21363 2 4.5V15.4815C2 15.7678 2.22386 16 2.5 16H21.5C21.7761 16 22 15.7678 22 15.4815V4.5C22 4.21363 21.7761 3.98148 21.5 3.98148Z" fill="white"/>
</svg>
