<svg width="24" height="24" viewBox="0 0 24 24" fill="none" xmlns="http://www.w3.org/2000/svg">
<path fill-rule="evenodd" clip-rule="evenodd" d="M10.5 7V2.13333L13.5 0V7H17.1049C17.6145 7 18.0425 7.38314 18.0988 7.88957L18.8766 14.8896C18.8827 14.9446 18.8843 14.9991 18.8815 15.0525L19.3125 18.5H4.68748L5.11841 15.0525C5.1157 14.9991 5.11724 14.9446 5.12336 14.8896L5.90114 7.88957C5.95741 7.38313 6.38547 7 6.89502 7H10.5ZM12 10.5C12.2761 10.5 12.5 10.7239 12.5 11V15C12.5 15.2761 12.2761 15.5 12 15.5C11.7238 15.5 11.5 15.2761 11.5 15V11C11.5 10.7239 11.7238 10.5 12 10.5ZM9.49998 11C9.49998 10.7239 9.27612 10.5 8.99998 10.5C8.72384 10.5 8.49998 10.7239 8.49998 11V15C8.49998 15.2761 8.72384 15.5 8.99998 15.5C9.27612 15.5 9.49998 15.2761 9.49998 15V11ZM15 10.5C15.2761 10.5 15.5 10.7239 15.5 11V15C15.5 15.2761 15.2761 15.5 15 15.5C14.7238 15.5 14.5 15.2761 14.5 15V11C14.5 10.7239 14.7238 10.5 15 10.5Z" fill="white"/>
<path d="M4.56248 19.5L4.562 19.5039C4.26357 21.8913 6.12511 24 8.53111 24H15.4688C17.8748 24 19.7364 21.8913 19.438 19.5039L19.4375 19.5H4.56248Z" fill="white"/>
</svg>
