<svg width="24" height="24" viewBox="0 0 24 24" fill="none" xmlns="http://www.w3.org/2000/svg">
<path fill-rule="evenodd" clip-rule="evenodd" d="M18 8H6C3.79086 8 2 9.79086 2 12C2 14.2091 3.79086 16 6 16H18C20.2091 16 22 14.2091 22 12C22 9.79086 20.2091 8 18 8ZM6 6C2.68629 6 0 8.68629 0 12C0 15.3137 2.68629 18 6 18H18C21.3137 18 24 15.3137 24 12C24 8.68629 21.3137 6 18 6H6Z" fill="white"/>
<path d="M3 12C3 10.3431 4.34315 9 6 9C7.65685 9 9 10.3431 9 12C9 13.6569 7.65685 15 6 15C4.34315 15 3 13.6569 3 12Z" fill="white"/>
</svg>
