<svg width="24" height="24" viewBox="0 0 24 24" fill="none" xmlns="http://www.w3.org/2000/svg">
<path d="M6.66667 6H17.3333C17.7015 6 18 6.29848 18 6.66667V9H15L19 13L23 9H20V6.66667C20 5.19391 18.8061 4 17.3333 4H6.66667C5.19391 4 4 5.19391 4 6.66667V9H6V6.66667C6 6.29848 6.29848 6 6.66667 6Z" fill="white"/>
<path d="M4 15H1L5 11L9 15H6V17.3333C6 17.7015 6.29848 18 6.66667 18H17.3333C17.7015 18 18 17.7015 18 17.3333V15H20V17.3333C20 18.8061 18.8061 20 17.3333 20H6.66667C5.19391 20 4 18.8061 4 17.3333V15Z" fill="white"/>
</svg>
