<svg width="24" height="24" viewBox="0 0 24 24" fill="none" xmlns="http://www.w3.org/2000/svg">
<path fill-rule="evenodd" clip-rule="evenodd" d="M2 9.07407C2 7.92859 2.89543 7 4 7H18C18.9094 7 19.677 7.728 20.1989 8.22297C20.3109 8.32922 20.4116 8.42473 20.5 8.5C21 8.92593 24 12 24 12L20.5 15.5C20.4624 15.5376 20.4225 15.5781 20.3804 15.6208C19.864 16.1449 19.0214 17 18 17H4C2.89543 17 2 16.0714 2 14.9259V9.07407ZM18 14C19.1046 14 20 13.1046 20 12C20 10.8954 19.1046 10 18 10C16.8954 10 16 10.8954 16 12C16 13.1046 16.8954 14 18 14Z" fill="white"/>
</svg>
