<svg width="24" height="24" viewBox="0 0 24 24" fill="none" xmlns="http://www.w3.org/2000/svg">
<path fill-rule="evenodd" clip-rule="evenodd" d="M21.0257 2.55874C20.5504 2.90441 20.2002 3.19936 20 4C19.9971 4.01179 19.9886 4.06665 19.9791 4.12815C19.9661 4.21242 19.9512 4.30915 19.9459 4.32463L18 16H4L1 4H17.9998C17.9998 3.91996 18.0096 3.83863 18.0299 3.75746C18.3297 2.5581 18.9496 1.59559 19.8493 0.941264C20.7415 0.292391 21.8346 0 23 0C23.5523 0 24 0.447715 24 1C24 1.55228 23.5523 2 23 2C22.1653 2 21.5085 2.20761 21.0257 2.55874ZM3.56155 6L5.56155 14H16.3057L17.6391 6H3.56155Z" fill="white"/>
<path fill-rule="evenodd" clip-rule="evenodd" d="M7 24C8.65685 24 10 22.6569 10 21C10 19.3431 8.65685 18 7 18C5.34315 18 4 19.3431 4 21C4 22.6569 5.34315 24 7 24ZM7 22C7.55228 22 8 21.5523 8 21C8 20.4477 7.55228 20 7 20C6.44772 20 6 20.4477 6 21C6 21.5523 6.44772 22 7 22Z" fill="white"/>
<path fill-rule="evenodd" clip-rule="evenodd" d="M15 24C16.6569 24 18 22.6569 18 21C18 19.3431 16.6569 18 15 18C13.3431 18 12 19.3431 12 21C12 22.6569 13.3431 24 15 24ZM15 22C15.5523 22 16 21.5523 16 21C16 20.4477 15.5523 20 15 20C14.4477 20 14 20.4477 14 21C14 21.5523 14.4477 22 15 22Z" fill="white"/>
</svg>
