<svg width="24" height="24" viewBox="0 0 24 24" fill="none" xmlns="http://www.w3.org/2000/svg">
<path fill-rule="evenodd" clip-rule="evenodd" d="M12 2C12.5523 2 13 2.44772 13 3V6.08296C13.9117 6.23591 14.7536 6.59444 15.4765 7.10925L17.6568 4.92894C18.0474 4.53841 18.6805 4.53841 19.0711 4.92894C19.4616 5.31946 19.4616 5.95263 19.0711 6.34315L16.8907 8.52346C17.4056 9.2464 17.7641 10.0883 17.917 11H21C21.5523 11 22 11.4477 22 12C22 12.5523 21.5523 13 21 13H17.917C17.7641 13.9116 17.4056 14.7536 16.8908 15.4765L19.0711 17.6568C19.4616 18.0474 19.4616 18.6805 19.0711 19.0711C18.6806 19.4616 18.0474 19.4616 17.6569 19.0711L15.4766 16.8907C14.7536 17.4056 13.9117 17.7641 13 17.917V21C13 21.5523 12.5523 22 12 22C11.4477 22 11 21.5523 11 21V17.917C10.0883 17.7641 9.24639 17.4056 8.52346 16.8907L6.34315 19.0711C5.95263 19.4616 5.31946 19.4616 4.92894 19.0711C4.53842 18.6805 4.53842 18.0474 4.92894 17.6568L7.10925 15.4765C6.59443 14.7536 6.2359 13.9117 6.08296 13H3C2.44772 13 2 12.5523 2 12C2 11.4477 2.44772 11 3 11H6.08295C6.2359 10.0883 6.59443 9.24641 7.10924 8.52348L4.92892 6.34316C4.53839 5.95263 4.53839 5.31947 4.92892 4.92894C5.31944 4.53842 5.9526 4.53842 6.34313 4.92894L8.52345 7.10926C9.24638 6.59444 10.0883 6.23591 11 6.08296V3C11 2.44772 11.4477 2 12 2ZM9.16832 14.8252C8.44684 14.102 8.00058 13.1042 8 12.0022L8 12C8 9.79086 9.79086 8 12 8C13.1031 8 14.1018 8.44649 14.8255 9.16861L14.8284 9.17158L14.8314 9.17454C15.5535 9.89816 16 10.8969 16 12C16 14.2091 14.2091 16 12 16C10.8971 16 9.89842 15.5536 9.17482 14.8317L9.17158 14.8284L9.16832 14.8252Z" fill="white"/>
</svg>
