<svg width="24" height="24" viewBox="0 0 24 24" fill="none" xmlns="http://www.w3.org/2000/svg">
<path fill-rule="evenodd" clip-rule="evenodd" d="M6.33333 8H2.66667C2.29848 8 2 8.29848 2 8.66667V15.3333C2 15.7015 2.29848 16 2.66667 16H6.33333C6.70152 16 7 15.7015 7 15.3333V8.66667C7 8.29848 6.70152 8 6.33333 8ZM2.66667 6C1.19391 6 0 7.19391 0 8.66667V15.3333C0 16.8061 1.19391 18 2.66667 18H6.33333C7.80609 18 9 16.8061 9 15.3333V8.66667C9 7.19391 7.80609 6 6.33333 6H2.66667Z" fill="white"/>
<path fill-rule="evenodd" clip-rule="evenodd" d="M21.3333 8H17.6667C17.2985 8 17 8.29848 17 8.66667V15.3333C17 15.7015 17.2985 16 17.6667 16H21.3333C21.7015 16 22 15.7015 22 15.3333V8.66667C22 8.29848 21.7015 8 21.3333 8ZM17.6667 6C16.1939 6 15 7.19391 15 8.66667V15.3333C15 16.8061 16.1939 18 17.6667 18H21.3333C22.8061 18 24 16.8061 24 15.3333V8.66667C24 7.19391 22.8061 6 21.3333 6H17.6667Z" fill="white"/>
<path d="M11 2H13V22H11V2Z" fill="white"/>
</svg>
