<svg width="24" height="24" viewBox="0 0 24 24" fill="none" xmlns="http://www.w3.org/2000/svg">
<path d="M22 5C22 3.34315 17.5228 2 12 2C6.47715 2 2 3.34315 2 5V6.33844C2.06935 6.398 2.15788 6.46455 2.27087 6.53741C2.73607 6.83737 3.45893 7.13587 4.41916 7.39775C6.32888 7.91858 9.00939 8.25 12 8.25C14.9906 8.25 17.6711 7.91858 19.5808 7.39775C20.5411 7.13587 21.2639 6.83737 21.7291 6.53741C21.8421 6.46455 21.9307 6.398 22 6.33844V5Z" fill="white"/>
<path d="M22 8.10466C21.4309 8.38933 20.7427 8.63567 19.9755 8.84489C17.904 9.40985 15.0845 9.75 12 9.75C8.91547 9.75 6.09599 9.40985 4.02449 8.84489C3.25732 8.63567 2.56906 8.38933 2 8.10466V11.3384C2.06935 11.398 2.15788 11.4646 2.27087 11.5374C2.73607 11.8374 3.45893 12.1359 4.41916 12.3977C6.32888 12.9186 9.00939 13.25 12 13.25C14.9906 13.25 17.6711 12.9186 19.5808 12.3977C20.5411 12.1359 21.2639 11.8374 21.7291 11.5374C21.8421 11.4646 21.9307 11.398 22 11.3384V8.10466Z" fill="white"/>
<path d="M2 16.3384V13.1047C2.56906 13.3893 3.25732 13.6357 4.02449 13.8449C6.09599 14.4098 8.91547 14.75 12 14.75C15.0845 14.75 17.904 14.4098 19.9755 13.8449C20.7427 13.6357 21.4309 13.3893 22 13.1047V16.3384C21.9307 16.398 21.8421 16.4646 21.7291 16.5374C21.2639 16.8374 20.5411 17.1359 19.5808 17.3977C17.6711 17.9186 14.9906 18.25 12 18.25C9.00939 18.25 6.32888 17.9186 4.41916 17.3977C3.45893 17.1359 2.73607 16.8374 2.27087 16.5374C2.15788 16.4646 2.06935 16.398 2 16.3384Z" fill="white"/>
<path d="M22 18.1047C21.4309 18.3893 20.7427 18.6357 19.9755 18.8449C17.904 19.4098 15.0845 19.75 12 19.75C8.91547 19.75 6.09599 19.4098 4.02449 18.8449C3.25732 18.6357 2.56906 18.3893 2 18.1047V19C2 20.6569 6.47715 22 12 22C17.5228 22 22 20.6569 22 19V18.1047Z" fill="white"/>
</svg>
