<svg width="24" height="24" viewBox="0 0 24 24" fill="none" xmlns="http://www.w3.org/2000/svg">
<path fill-rule="evenodd" clip-rule="evenodd" d="M12 20C14.5189 20 17 17.5729 17 14C17 12.1662 16.321 9.47968 15.1735 7.26239C14.6058 6.16534 13.9777 5.29093 13.3618 4.71737C12.7405 4.13885 12.2836 4 12 4C11.7164 4 11.2595 4.13885 10.6382 4.71737C10.0223 5.29093 9.39423 6.16534 8.82648 7.26239C7.67898 9.47968 7 12.1662 7 14C7 17.5729 9.48108 20 12 20ZM12 22C15.866 22 19 18.4183 19 14C19 9.58172 15.866 2 12 2C8.13401 2 5 9.58172 5 14C5 18.4183 8.13401 22 12 22Z" fill="white"/>
</svg>
