<svg width="24" height="24" viewBox="0 0 24 24" fill="none" xmlns="http://www.w3.org/2000/svg">
<path fill-rule="evenodd" clip-rule="evenodd" d="M7.00002 16V8H17V16H7.00002ZM9.00002 10H15V14H9.00002V10Z" fill="white"/>
<path fill-rule="evenodd" clip-rule="evenodd" d="M5.24809 1.01546C4.62144 0.937131 3.99461 1.15937 3.55726 1.61494C3.11991 2.07051 2.92341 2.70588 3.02723 3.32882C3.99095 9.11112 3.99095 14.889 3.02724 20.6712C2.92341 21.2941 3.1199 21.9295 3.55726 22.3851C3.99461 22.8407 4.62144 23.0629 5.24809 22.9846C9.08335 22.5052 14.9167 22.5052 18.752 22.9846C19.3786 23.0629 20.0054 22.8407 20.4428 22.3851C20.8801 21.9295 21.0766 21.2941 20.9728 20.6712C20.0091 14.889 20.0091 9.11121 20.9728 3.32881C21.0766 2.70588 20.8801 2.07051 20.4428 1.61494C20.0054 1.15937 19.3786 0.937132 18.752 1.01546C14.9167 1.49487 9.08335 1.49487 5.24809 1.01546ZM7.05871 20.7983C6.33216 20.8527 5.64046 20.92 5.00002 21C5.11386 20.317 5.21474 19.6339 5.30267 18.9509C5.89914 14.317 5.89914 9.68307 5.30266 5.04914C5.21474 4.3661 5.11386 3.68306 5.00002 3.00002C5.64046 3.08007 6.33216 3.14731 7.05871 3.20173C10.1435 3.43278 13.8565 3.43278 16.9413 3.20173C17.6679 3.14731 18.3596 3.08007 19 3.00002C18.8862 3.68306 18.7853 4.3661 18.6974 5.04914C18.1009 9.68311 18.1009 14.317 18.6974 18.9509C18.7853 19.6339 18.8862 20.317 19 21C18.3596 20.92 17.6679 20.8527 16.9413 20.7983C13.8565 20.5673 10.1435 20.5673 7.05871 20.7983Z" fill="white"/>
</svg>
