<svg width="24" height="24" viewBox="0 0 24 24" fill="none" xmlns="http://www.w3.org/2000/svg">
<path d="M14.9142 2.96533L17.0479 2.12441C17.5028 1.94622 18.0049 2.23647 18.0746 2.72085L18.4012 4.98971C18.4487 5.32106 18.7087 5.58253 19.0388 5.63023L21.3062 5.96963C21.789 6.04152 22.0786 6.54623 21.8972 6.99934L21.0464 9.12835C20.9234 9.43803 21.0158 9.79378 21.2779 10.0019L23.0722 11.4284C23.4552 11.733 23.4526 12.3129 23.0692 12.6159L21.2668 14.034C21.0053 14.24 20.9089 14.5961 21.0308 14.906L21.8717 17.0397C22.0499 17.4946 21.7596 17.9967 21.2753 18.0664L19.0064 18.393C18.6751 18.4405 18.4136 18.7005 18.3659 19.0306L18.0265 21.298C17.9546 21.7808 17.4499 22.0704 16.9968 21.889L14.8678 21.0383C14.5581 20.9152 14.2023 21.0076 13.9942 21.2697L12.5677 23.064C12.2631 23.447 11.6832 23.4444 11.3803 23.0611L9.96213 21.2586C9.75609 20.9971 9.39999 20.9007 9.09014 21.0226L6.95645 21.8635C6.50152 22.0417 5.99946 21.7515 5.92968 21.2671L5.60309 18.9982C5.55559 18.6669 5.29563 18.4054 4.96555 18.3577L2.69813 18.0183C2.21535 17.9464 1.92569 17.4417 2.10715 16.9886L2.95787 14.8596C3.0809 14.5499 2.98855 14.1942 2.72641 13.986L0.932114 12.5595C0.549077 12.2549 0.551717 11.675 0.93506 11.3721L2.73747 9.95394C2.99904 9.7479 3.09544 9.3918 2.97352 9.08196L2.1326 6.94826C1.9544 6.49333 2.24466 5.99127 2.72904 5.9215L4.9979 5.5949C5.32925 5.5474 5.59071 5.28744 5.63842 4.95736L5.97782 2.68994C6.04971 2.20717 6.55441 1.9175 7.00753 2.09896L9.13653 2.94968C9.44622 3.07271 9.80196 2.98036 10.0101 2.71822L11.4366 0.923926C11.7412 0.540889 12.3211 0.543529 12.624 0.926873L14.0422 2.72928C14.2476 2.99314 14.6014 3.08891 14.9142 2.96533Z" fill="white"/>
</svg>
