<svg width="24" height="24" viewBox="0 0 24 24" fill="none" xmlns="http://www.w3.org/2000/svg">
<path d="M16 7V8H8V7H16Z" fill="white"/>
<path d="M16 14V13H8V14H16Z" fill="white"/>
<path d="M14 10V11H8V10H14Z" fill="white"/>
<path d="M14 17V16H8V17H14Z" fill="white"/>
<path fill-rule="evenodd" clip-rule="evenodd" d="M7 1C7 0.447715 7.44772 0 8 0C8.55229 0 9 0.447715 9 1V3H11V1C11 0.447715 11.4477 0 12 0C12.5523 0 13 0.447715 13 1V3H15V1C15 0.447715 15.4477 0 16 0C16.5523 0 17 0.447715 17 1V3H17.9259C19.0714 3 20 3.89543 20 5V19C20 20.1046 19.0714 21 17.9259 21H6.07407C4.92859 21 4 20.1046 4 19V5C4 3.89543 4.9286 3 6.07407 3H7V1ZM7 5C6.44772 5 6 5.44772 6 6V18C6 18.5523 6.44771 19 7 19H17C17.5523 19 18 18.5523 18 18V6C18 5.44772 17.5523 5 17 5H7Z" fill="white"/>
</svg>
