<svg width="24" height="24" viewBox="0 0 24 24" fill="none" xmlns="http://www.w3.org/2000/svg">
<path d="M15.4587 16.4129L11.662 13.7009L18.0194 7.70624L15.4587 16.4129ZM9.14671 12.9956C9.16205 12.9342 9.16471 12.8729 9.16271 12.8129L16.49 8.13491L10.6967 13.5002H10.6954L10.69 13.6036L10.62 13.7182L10.622 13.7442L8.39736 15.9816L9.14671 12.9956ZM6.75271 11.0076L15.4114 8.12158L8.81405 12.2442L6.75271 11.0076ZM19.63 5.68691C19.4514 5.51491 19.1934 5.45558 18.956 5.53424L4.95605 10.2009C4.70938 10.2836 4.53271 10.5022 4.50405 10.7609C4.47538 11.0196 4.60071 11.2716 4.82405 11.4049L7.73405 13.1509L6.52071 18.0049C6.44738 18.2956 6.57805 18.5996 6.83805 18.7469C6.94138 18.8049 7.05471 18.8336 7.16671 18.8336C7.33938 18.8336 7.51005 18.7662 7.63871 18.6382L11.2394 15.0376L15.446 18.0429C15.6214 18.1682 15.8467 18.2016 16.0514 18.1302C16.2547 18.0602 16.4127 17.8956 16.4727 17.6882L19.806 6.35491C19.8767 6.11691 19.808 5.85958 19.63 5.68691Z" fill="white"/>
</svg>
