<svg width="24" height="24" viewBox="0 0 24 24" fill="none" xmlns="http://www.w3.org/2000/svg">
<path d="M3 5H10V15H3V5Z" fill="white"/>
<path d="M3 5H10V15H3V5Z" fill="white"/>
<path d="M3 5H10V15H3V5Z" fill="white"/>
<path d="M11 5H21V9H11V5Z" fill="white"/>
<path d="M11 5H21V9H11V5Z" fill="white"/>
<path d="M11 5H21V9H11V5Z" fill="white"/>
<path d="M18 10H21V15H18V10Z" fill="white"/>
<path d="M18 10H21V15H18V10Z" fill="white"/>
<path d="M18 10H21V15H18V10Z" fill="white"/>
<path d="M11 10H17V15H11V10Z" fill="white"/>
<path d="M11 10H17V15H11V10Z" fill="white"/>
<path d="M11 10H17V15H11V10Z" fill="white"/>
<path fill-rule="evenodd" clip-rule="evenodd" d="M9 18H2C0.89543 18 0 17.0714 0 15.9259V4.07407C0 2.92859 0.895431 2 2 2H22C23.1046 2 24 2.92859 24 4.07407V15.9259C24 17.0714 23.1046 18 22 18H15V20H20V22H4V20H9V18ZM2.5 3.98148H21.5C21.7761 3.98148 22 4.21363 22 4.5V15.4815C22 15.7678 21.7761 16 21.5 16H2.5C2.22386 16 2 15.7678 2 15.4815V4.5C2 4.21363 2.22386 3.98148 2.5 3.98148Z" fill="white"/>
<path fill-rule="evenodd" clip-rule="evenodd" d="M9 18H2C0.89543 18 0 17.0714 0 15.9259V4.07407C0 2.92859 0.895431 2 2 2H22C23.1046 2 24 2.92859 24 4.07407V15.9259C24 17.0714 23.1046 18 22 18H15V20H20V22H4V20H9V18ZM2.5 3.98148H21.5C21.7761 3.98148 22 4.21363 22 4.5V15.4815C22 15.7678 21.7761 16 21.5 16H2.5C2.22386 16 2 15.7678 2 15.4815V4.5C2 4.21363 2.22386 3.98148 2.5 3.98148Z" fill="white"/>
<path fill-rule="evenodd" clip-rule="evenodd" d="M9 18H2C0.89543 18 0 17.0714 0 15.9259V4.07407C0 2.92859 0.895431 2 2 2H22C23.1046 2 24 2.92859 24 4.07407V15.9259C24 17.0714 23.1046 18 22 18H15V20H20V22H4V20H9V18ZM2.5 3.98148H21.5C21.7761 3.98148 22 4.21363 22 4.5V15.4815C22 15.7678 21.7761 16 21.5 16H2.5C2.22386 16 2 15.7678 2 15.4815V4.5C2 4.21363 2.22386 3.98148 2.5 3.98148Z" fill="white"/>
</svg>
