<svg width="24" height="24" viewBox="0 0 24 24" fill="none" xmlns="http://www.w3.org/2000/svg">
<path fill-rule="evenodd" clip-rule="evenodd" d="M14.1916 19.5977C13.3788 20.4911 12.2284 21.1742 10.6961 21.4806C7.91349 22.0371 5.45623 21.3477 3.69928 19.7372C1.95764 18.1407 1 15.729 1 13C1 10.2623 1.96237 7.74057 3.86886 5.90469C5.77592 4.06824 8.54144 2.99998 12 3C14.8649 3.00002 17.9994 4.6898 20.2009 7.29155C22.4222 9.91676 23.7945 13.5846 22.9854 17.6718C22.9419 17.9215 22.804 18.1549 22.5815 18.3138C20.9784 19.4589 19.1473 19.8686 17.5555 19.9367C16.2486 19.9925 15.0542 19.8206 14.1916 19.5977ZM3 13C3 10.7378 3.78763 8.75946 5.25614 7.34532C6.72408 5.93174 8.95856 4.99998 12 5C14.1351 5.00001 16.7506 6.31021 18.6741 8.58344C20.4988 10.7399 21.6103 13.6607 21.0913 16.9045C19.9679 17.6001 18.6835 17.8866 17.4701 17.9385C16.6608 17.9731 15.9097 17.9019 15.3015 17.7932C15.4314 17.4593 15.5319 17.115 15.6043 16.7651C16.0368 14.6745 15.4752 12.3683 14.2809 10.8753C11.8635 7.85359 7.43492 8.29487 5.66795 10.9453C4.99101 11.9607 4.8402 13.2683 5.16348 14.3997C5.49368 15.5555 6.35164 16.6187 7.75746 16.9702C9.03673 17.29 10.203 17.001 10.9401 16.1585C11.6511 15.346 11.7904 14.2089 11.4487 13.1838C11.274 12.6599 10.7077 12.3767 10.1838 12.5513C9.65983 12.726 9.37667 13.2923 9.55132 13.8162C9.7096 14.2911 9.59894 14.6541 9.43493 14.8415C9.29706 14.9991 8.96328 15.2101 8.24255 15.0299C7.64836 14.8813 7.25632 14.4446 7.08652 13.8503C6.90981 13.2318 7.009 12.5393 7.33206 12.0547C8.33859 10.5449 11.1365 10.1464 12.7191 12.1247C13.5248 13.1317 13.9632 14.8256 13.6457 16.3599C13.3453 17.812 12.3788 19.1045 10.3039 19.5195C8.08652 19.9629 6.29377 19.4023 5.05072 18.2629C3.79236 17.1094 3 15.271 3 13Z" fill="white"/>
</svg>
