<svg width="24" height="24" viewBox="0 0 24 24" fill="none" xmlns="http://www.w3.org/2000/svg">
<path d="M8 5C8 3.89543 8.89543 3 10 3H14C15.1046 3 16 3.89543 16 5H18.3333C19.8061 5 21 6.19391 21 7.66667V9H3V7.66667C3 6.19391 4.19391 5 5.66667 5H8Z" fill="white"/>
<path fill-rule="evenodd" clip-rule="evenodd" d="M4 10H20V19.3333C20 20.8061 18.8061 22 17.3333 22H6.66667C5.19391 22 4 20.8061 4 19.3333V10ZM8 13H7V19H8V13ZM10 13H11V19H10V13ZM13 13H14V19H13V13ZM16 13H17V19H16V13Z" fill="white"/>
</svg>
