<svg width="24" height="24" viewBox="0 0 24 24" fill="none" xmlns="http://www.w3.org/2000/svg">
<path fill-rule="evenodd" clip-rule="evenodd" d="M16.4492 2.71637L14.6598 3.61108C14.1587 2.65348 13.1557 2 12 2C10.3431 2 9 3.34315 9 5V8L17.9259 8C19.0714 8 20 8.89543 20 10L20 20C20 21.1046 19.0714 22 17.9259 22H6.07407C4.92859 22 4 21.1046 4 20V10C4 8.89543 4.9286 8 6.07407 8H7V5C7 2.23858 9.23858 0 12 0C13.9387 0 15.6196 1.10336 16.4492 2.71637ZM18.0185 10.5L18.0185 19.5C18.0185 19.7761 17.7864 20 17.5 20H6.51852C6.23215 20 6 19.7761 6 19.5L6 10.5C6 10.2239 6.23215 10 6.51852 10L17.5 10C17.7864 10 18.0185 10.2239 18.0185 10.5Z" fill="white"/>
<path d="M14 15C14 16.1046 13.1046 17 12 17C10.8954 17 10 16.1046 10 15C10 13.8954 10.8954 13 12 13C13.1046 13 14 13.8954 14 15Z" fill="white"/>
</svg>
