<svg width="24" height="24" viewBox="0 0 24 24" fill="none" xmlns="http://www.w3.org/2000/svg">
<path fill-rule="evenodd" clip-rule="evenodd" d="M9.50437 14.458C7.48349 15.2293 5.91185 16.9102 5.28988 19C5.10128 19.6337 5 20.305 5 21H19C19 20.305 18.8987 19.6337 18.7101 19C18.0882 16.9102 16.5165 15.2293 14.4956 14.458C13.7204 14.1621 12.8791 14 12 14C11.1209 14 10.2796 14.1621 9.50437 14.458ZM9.72451 12.2901C10.3705 12.7377 11.1546 13 12 13C12.8454 13 13.6295 12.7377 14.2755 12.2901C15.3175 11.5681 16 10.3637 16 9C16 6.79086 14.2091 5 12 5C9.79086 5 8 6.79086 8 9C8 10.3637 8.68247 11.5681 9.72451 12.2901ZM16.584 19C15.8124 17.2341 14.0503 16 12 16C9.94968 16 8.1876 17.2341 7.41604 19H16.584ZM12 11C13.1046 11 14 10.1046 14 9C14 7.89543 13.1046 7 12 7C10.8954 7 10 7.89543 10 9C10 10.1046 10.8954 11 12 11Z" fill="white"/>
</svg>
