<svg width="24" height="24" viewBox="0 0 24 24" fill="none" xmlns="http://www.w3.org/2000/svg">
<path d="M8.55463 4.83575C8.65899 5.4195 8.70751 6.04723 8.69381 6.75977C8.75147 6.76624 8.80962 6.77329 8.86801 6.78082C8.89964 6.60318 8.93996 6.42686 8.99138 6.25026C9.23751 5.40488 9.72341 4.59148 10.6234 3.56111C10.805 3.35313 11.1209 3.33179 11.3289 3.51344C11.5368 3.6951 11.5582 4.01096 11.3765 4.21894C10.5296 5.18856 10.1421 5.87517 9.95152 6.52979C9.91186 6.66601 9.88012 6.80248 9.85473 6.94203C9.92917 6.95624 10.0015 6.97042 10.0711 6.98434C10.3956 7.04924 10.6867 7.11395 10.8967 7.1624C11.0019 7.18667 11.0872 7.20698 11.1467 7.22135L11.216 7.23823L11.2349 7.24289L11.2425 7.24478C11.7667 7.37583 12.092 7.89959 11.9771 8.42757L8.97708 22.2127C8.87706 22.6722 8.47029 23 7.99995 23C7.5296 23 7.12283 22.6722 7.02282 22.2127L4.02282 8.42757C3.90792 7.89959 4.23321 7.37583 4.75741 7.24478L4.76501 7.24289L4.78386 7.23823L4.8532 7.22135C4.91272 7.20698 4.99803 7.18667 5.10321 7.1624C5.31317 7.11395 5.60432 7.04924 5.92883 6.98434C6.14586 6.94093 6.38971 6.89493 6.64121 6.85345C6.45106 6.45712 6.26261 6.11192 6.07614 5.81404C5.60057 5.05431 5.16105 4.63956 4.77635 4.44721C4.52936 4.32371 4.42924 4.02338 4.55274 3.77639C4.67623 3.5294 4.97657 3.42929 5.22356 3.55278C5.83885 3.86043 6.39934 4.44568 6.92377 5.28345C7.18037 5.69338 7.43394 6.17279 7.68507 6.72577L7.69428 6.72519C7.70592 6.07544 7.66086 5.51865 7.57023 5.01174C7.39537 4.03365 7.04559 3.20935 6.55273 2.22359C6.42924 1.9766 6.52935 1.67626 6.77634 1.55277C7.02333 1.42928 7.32367 1.5294 7.44716 1.77639C7.95427 2.79063 8.35449 3.71633 8.55463 4.83575Z" fill="white"/>
<path d="M18.3535 6.85359C18.0557 7.15132 18.0081 7.41322 18.0011 8.01283C18.5919 8.04378 19.1483 8.13185 19.6476 8.28749L19.8407 9.25319L18.7957 8.90486L17.9222 10.2152L16.6533 8.94624L15.1871 9.31282L15.4508 8.25789C15.9247 8.1205 16.4474 8.04164 17.0003 8.01277C17.0047 7.36055 17.0573 6.73555 17.6464 6.14644C17.8416 5.95119 18.1582 5.95119 18.3535 6.14644C18.5487 6.34175 18.5487 6.65828 18.3535 6.85359Z" fill="white"/>
<path d="M20.7764 8.83278L21.1592 10.7468L19.2041 10.0951L18.0776 11.7848L16.3466 10.0537L13.8127 10.6871L14.2875 8.78804C13.4911 9.33064 12.9999 10.182 12.9999 11.4286C12.9999 13.9533 15.0146 16 17.4999 16C19.9852 16 21.9999 13.9533 21.9999 11.4286C21.9999 10.2158 21.535 9.37703 20.7764 8.83278Z" fill="white"/>
</svg>
