<svg width="24" height="24" viewBox="0 0 24 24" fill="none" xmlns="http://www.w3.org/2000/svg">
<path d="M9.80629 4.13715C10.1014 3.83344 10.39 3.53632 10.5 3C10.5717 2.65015 10.5757 2.27289 10.5795 1.9079C10.59 0.907837 10.5995 0 12 0C13.4005 0 13.41 0.907837 13.4205 1.9079C13.4243 2.27289 13.4283 2.65015 13.5 3C13.61 3.53632 13.8986 3.83344 14.1937 4.13715C14.591 4.54614 15 4.9671 15 6H16V7H8V6H9C9 4.9671 9.40896 4.54614 9.80629 4.13715Z" fill="#555758"/>
<path fill-rule="evenodd" clip-rule="evenodd" d="M6 11C6 9.34314 7.34315 8 9 8H15C16.6569 8 18 9.34314 18 11V21C18 22.6569 16.6569 24 15 24H9C7.34315 24 6 22.6569 6 21V11ZM9.5 12C9.5 11.7239 9.72386 11.5 10 11.5H14C14.2761 11.5 14.5 11.7239 14.5 12C14.5 12.2761 14.2761 12.5 14 12.5H10C9.72386 12.5 9.5 12.2761 9.5 12ZM10 14.5C9.72386 14.5 9.5 14.7239 9.5 15C9.5 15.2761 9.72386 15.5 10 15.5H14C14.2761 15.5 14.5 15.2761 14.5 15C14.5 14.7239 14.2761 14.5 14 14.5H10ZM9.5 18C9.5 17.7239 9.72386 17.5 10 17.5H14C14.2761 17.5 14.5 17.7239 14.5 18C14.5 18.2761 14.2761 18.5 14 18.5H10C9.72386 18.5 9.5 18.2761 9.5 18Z" fill="#555758"/>
</svg>
