<svg width="24" height="24" viewBox="0 0 24 24" fill="none" xmlns="http://www.w3.org/2000/svg">
<path fill-rule="evenodd" clip-rule="evenodd" d="M12 21.0362C17.5 22.0362 19 17.2829 19 12.0362C19 6.78953 18 3.23631 12 2.03624C9.5 1.53612 6 6.28953 6 11.5362C6 16.7829 7.65298 20.2458 12 21.0362ZM12.4872 4.14867C12.5493 3.87962 12.3815 3.61107 12.1124 3.54906C11.8434 3.48692 11.5749 3.65477 11.5128 3.92381C11.129 5.58702 11.0578 6.77 11.167 7.77757C11.2643 8.67564 11.5047 9.41637 11.7526 10.1799L11.7537 10.1832C11.7812 10.2682 11.8089 10.3535 11.8365 10.4392C12.3794 12.1283 12.9955 14.3102 12.5023 19.4889C12.4761 19.7638 12.6777 20.0078 12.9526 20.0339C13.2275 20.0602 13.4716 19.8585 13.4977 19.5836C14.0045 14.2623 13.3706 11.9442 12.7885 10.1332C12.7605 10.046 12.7328 9.96068 12.7057 9.87694C12.4552 9.1035 12.2467 8.45994 12.1611 7.66991C12.0672 6.80247 12.121 5.73546 12.4872 4.14867Z" fill="#555758"/>
</svg>
