<svg width="24" height="24" viewBox="0 0 24 24" fill="none" xmlns="http://www.w3.org/2000/svg">
<path fill-rule="evenodd" clip-rule="evenodd" d="M7.19616 3.99702C7.13785 4.00277 7.07931 4.00595 7.02071 4.00656C7.02004 4.00658 7.01925 4.00661 7.01833 4.00664C7.00806 4.00702 6.98267 4.00818 6.94435 4.01124C6.86702 4.01741 6.74167 4.03099 6.58509 4.06017C6.26365 4.12006 5.85981 4.23652 5.47583 4.45115C5.10357 4.65923 4.759 4.95318 4.499 5.38917C4.24049 5.82266 4 6.50626 4 7.59632C4 8.43781 4.35567 9.52446 5.1111 10.7937C5.85077 12.0364 6.87835 13.2948 7.98312 14.4352C9.08398 15.5716 10.2154 16.5436 11.1219 17.2185C11.4669 17.4754 11.7632 17.6772 12 17.8242C12.2368 17.6772 12.5331 17.4754 12.8781 17.2185C13.7846 16.5436 14.916 15.5716 16.0169 14.4352C17.1217 13.2948 18.1492 12.0364 18.8889 10.7937C19.6443 9.52446 20 8.43781 20 7.59632C20 6.50626 19.7595 5.82266 19.501 5.38917C19.241 4.95318 18.8964 4.65923 18.5242 4.45115C18.1402 4.23652 17.7363 4.12006 17.4149 4.06017C17.2583 4.03099 17.133 4.01741 17.0556 4.01124C17.0173 4.00818 16.9919 4.00702 16.9817 4.00664M7.19616 3.99702C7.20301 3.99657 7.21975 3.9956 7.24514 3.99495C7.30426 3.99345 7.40524 3.99385 7.5342 4.00529C7.7997 4.02885 8.13522 4.09481 8.46157 4.24824C8.96974 4.48715 9.81894 5.08642 10.0083 7.16141C10.1022 8.19128 10.9658 8.97967 12 8.97967C13.0341 8.97967 13.8978 8.19128 13.9917 7.16141C14.1811 5.08642 15.0303 4.48715 15.5384 4.24824C15.8648 4.09481 16.2003 4.02885 16.4658 4.00529C16.5948 3.99385 16.6957 3.99345 16.7549 3.99495C16.7803 3.9956 16.797 3.99657 16.8038 3.99702C16.8622 4.00277 16.9207 4.00595 16.9793 4.00656L16.9859 4.00661L16.9921 4.00665L16.9958 4.00666L16.9979 4.00666M10.8308 3.64863C9.33806 1.74342 7 2.00666 7 2.00666C7 2.00666 2 2.00666 2 7.59632C2 13.006 10.791 20 12 20C13.209 20 22 13.006 22 7.59632C22 2.00666 17 2.00666 17 2.00666C17 2.00666 14.6619 1.74342 13.1692 3.64863C12.591 4.38657 12.1396 5.44981 12 6.97967C11.8604 5.44981 11.409 4.38656 10.8308 3.64863ZM11.566 18.0643C11.5431 18.0735 11.547 18.07 11.5735 18.0611C11.5705 18.0624 11.568 18.0635 11.566 18.0643ZM12.4264 18.0611C12.453 18.07 12.4569 18.0735 12.434 18.0643C12.432 18.0635 12.4295 18.0624 12.4264 18.0611Z" fill="#555758"/>
</svg>
