<svg width="24" height="24" viewBox="0 0 24 24" fill="none" xmlns="http://www.w3.org/2000/svg">
<path fill-rule="evenodd" clip-rule="evenodd" d="M9.09892 17.2884C11.8369 18.8726 16.9195 17.6423 19.9288 15.236C23.3795 12.4767 25.709 8.05337 22.1176 5.16331C19.3209 2.91269 15.2609 2.32352 11.8102 5.08277C8.85157 7.4485 6.56098 12.0191 7.38077 15.0418L4.85528 17.2516C4.55899 16.5178 3.83997 16 3 16C1.89543 16 1 16.8954 1 18C1 19.1046 1.89543 20 3 20C3.09464 20 3.18774 19.9934 3.27887 19.9807C3.10171 20.2792 3 20.6277 3 21C3 22.1046 3.89543 23 5 23C6.10457 23 7 22.1046 7 21C7 20.4618 6.78738 19.9732 6.44154 19.6136L9.09892 17.2884ZM18.6798 13.674C17.2564 14.8121 15.1963 15.6705 13.2791 15.9236C11.2521 16.191 10.0752 15.723 9.62135 15.1555C9.16752 14.5879 8.96985 13.3369 9.67668 11.4184C10.3452 9.60374 11.6359 7.78291 13.0592 6.64481C15.661 4.56435 18.6741 4.95935 20.8637 6.72145C21.4716 7.2106 21.7348 7.68022 21.8448 8.08845C21.959 8.51261 21.9492 9.0291 21.7546 9.65357C21.3487 10.9558 20.2189 12.4433 18.6798 13.674Z" fill="#555758"/>
</svg>
