<svg width="24" height="24" viewBox="0 0 24 24" fill="none" xmlns="http://www.w3.org/2000/svg">
<path fill-rule="evenodd" clip-rule="evenodd" d="M22 3C22 3 13 7 5 7H4C3 7 2 8 2 9.07407V12.9259C2 14 3 15 4 15H5C5.30242 15 5.60628 15.0057 5.91102 15.0167L5.71257 15.8283C5.31903 17.4377 6.30471 19.0615 7.91415 19.455L12.7279 20.6321C14.3373 21.0256 15.9611 20.0399 16.3546 18.4305L16.69 17.0588C19.8374 18.0388 22 19 22 19V3ZM7.93442 15.162C10.3156 15.4125 12.6785 15.9253 14.7685 16.4967L14.4118 17.9554C14.2807 18.4919 13.7394 18.8205 13.2029 18.6893L8.38919 17.5122C7.85271 17.3811 7.52415 16.8398 7.65533 16.3033L7.93442 15.162Z" fill="#555758"/>
</svg>
