<svg width="24" height="24" viewBox="0 0 24 24" fill="none" xmlns="http://www.w3.org/2000/svg">
<path d="M15.5571 6.00189C15.5936 5.25753 15.7158 4.65215 15.9301 4.22361C16.0567 3.97042 16.2074 3.79495 16.3774 3.68165C16.5442 3.57044 16.7578 3.5 17.0453 3.5C17.3215 3.5 17.5453 3.27614 17.5453 3C17.5453 2.72386 17.3215 2.5 17.0453 2.5C16.5829 2.5 16.1715 2.61706 15.8227 2.8496C15.477 3.08005 15.2215 3.40458 15.0356 3.77639C14.7449 4.35787 14.6061 5.09126 14.5618 5.88432C13.1518 5.81803 11.5453 6.29347 11.5453 9.49991C11.0844 17.3354 6.79961 19.2226 5.34913 19.8614C5.22612 19.9156 5.12349 19.9608 5.04531 19.9999C4.99175 20.0267 4.93034 20.0552 4.86469 20.0856C4.43665 20.2843 3.82858 20.5664 4.04533 20.9999C4.29532 21.4999 4.98892 21.7477 7.04533 20.9999C12.5453 18.9999 15.5453 14.4999 17.0453 10.4999C18.2422 7.3083 17.0515 6.25536 15.5571 6.00189Z" fill="#555758"/>
</svg>
