<svg width="24" height="24" viewBox="0 0 24 24" fill="none" xmlns="http://www.w3.org/2000/svg">
<path fill-rule="evenodd" clip-rule="evenodd" d="M4 5C8.26667 5 12 2 12 2C12 2 15.7333 5 20 5V15C20 17.963 12 22 12 22C12 22 4 17.963 4 15V5ZM13.4894 5.28069C14.6693 5.88406 16.2339 6.52681 18 6.82692V15C18 14.9832 17.9995 14.9845 17.9918 15.0042C17.9637 15.0763 17.8398 15.3939 17.2951 15.9714C16.6842 16.6191 15.8143 17.3095 14.8644 17.9648C13.9284 18.6105 12.9824 19.176 12.2644 19.5826C12.172 19.635 12.0837 19.6845 12 19.731L12 4.43238C12.4108 4.69151 12.9133 4.98606 13.4894 5.28069Z" fill="#555758"/>
</svg>
