<svg width="24" height="24" viewBox="0 0 24 24" fill="none" xmlns="http://www.w3.org/2000/svg">
<path fill-rule="evenodd" clip-rule="evenodd" d="M17.9999 11.1053C17.9999 13.2871 16.7933 14.5184 14.9999 15.0932V17C14.9999 17.1007 14.9925 17.1997 14.9781 17.2964C16.4367 18.1783 18.0951 18.3612 19.8038 18.0194C20.3454 17.9111 20.8722 18.2623 20.9805 18.8039C21.0888 19.3455 20.7376 19.8723 20.196 19.9806C17.9789 20.424 15.7069 20.1585 13.7224 18.8703C13.9021 19.3137 14.0847 19.6975 14.2949 20.0479C14.7599 20.8229 15.3817 21.4628 16.5144 22.1424C16.988 22.4266 17.1416 23.0408 16.8574 23.5144C16.5733 23.988 15.959 24.1416 15.4854 23.8574C14.1182 23.0371 13.24 22.177 12.5799 21.0769C12.3648 20.7183 12.1754 20.3375 11.9999 19.9331C11.8244 20.3375 11.6351 20.7183 11.4199 21.0769C10.7599 22.177 9.88165 23.0371 8.51443 23.8574C8.04085 24.1416 7.42659 23.988 7.14244 23.5144C6.8583 23.0408 7.01186 22.4266 7.48544 22.1424C8.61822 21.4628 9.23997 20.8229 9.70494 20.0479C9.9152 19.6975 10.0978 19.3137 10.2775 18.8703C8.293 20.1585 6.02101 20.424 3.80384 19.9806C3.26228 19.8723 2.91106 19.3455 3.01937 18.8039C3.12767 18.2623 3.65449 17.9111 4.19605 18.0194C5.90479 18.3612 7.56315 18.1783 9.02175 17.2964C9.00738 17.1997 8.99994 17.1007 8.99994 17V15.0932C7.20653 14.5184 5.99994 13.2871 5.99994 11.1053C5.99994 5 11.9999 0 11.9999 0C11.9999 0 17.9999 5 17.9999 11.1053ZM15.168 12.8367C15.656 12.5258 15.9999 12.0753 15.9999 11.1053C15.9999 8.68206 14.7906 6.32963 13.3962 4.45812C12.9113 3.80736 12.4248 3.24268 11.9999 2.78604C11.5751 3.24268 11.0886 3.80736 10.6037 4.45812C9.20925 6.32963 7.99994 8.68206 7.99994 11.1053C7.99994 12.0753 8.34389 12.5258 8.83191 12.8367C9.45706 13.235 10.515 13.5 11.9999 13.5C13.4848 13.5 14.5428 13.235 15.168 12.8367ZM10.4999 16C10.7761 16 10.9999 15.7761 10.9999 15.5C10.9999 15.2239 10.7761 15 10.4999 15C10.2238 15 9.99994 15.2239 9.99994 15.5C9.99994 15.7761 10.2238 16 10.4999 16ZM13.9999 15.5C13.9999 15.7761 13.7761 16 13.4999 16C13.2238 16 12.9999 15.7761 12.9999 15.5C12.9999 15.2239 13.2238 15 13.4999 15C13.7761 15 13.9999 15.2239 13.9999 15.5Z" fill="#555758"/>
</svg>
